<svg width="35" height="36" viewBox="0 0 35 36" fill="none" xmlns="http://www.w3.org/2000/svg">
<path d="M30.1055 15.4627C30.0887 15.3682 30.0061 15.3 29.9101 15.3H17.5307C17.4202 15.3 17.3307 15.3895 17.3307 15.5V20.5C17.3307 20.6105 17.4202 20.7 17.5307 20.7H24.6763C23.6047 23.8435 20.725 26.1 17.3307 26.1C13.0239 26.1 9.53208 22.4732 9.53208 18C9.53208 13.5268 13.0239 9.9 17.3307 9.9C19.2494 9.9 21.001 10.6256 22.3589 11.8201C22.4406 11.892 22.5648 11.8886 22.6403 11.8102L26.0425 8.27654C26.1189 8.19712 26.1168 8.07067 26.0364 7.99517C23.7314 5.82931 20.6838 4.5 17.3307 4.5C10.1527 4.5 4.33301 10.5446 4.33301 18C4.33301 25.4554 10.1527 31.5 17.3307 31.5C24.5086 31.5 30.3284 25.4554 30.3284 18C30.3284 17.1519 30.2496 16.2736 30.1055 15.4627Z" fill="#042D41"/>
</svg>
