<svg width="200" height="200" viewBox="0 0 200 200" fill="none" xmlns="http://www.w3.org/2000/svg">
<rect width="200" height="200" rx="100" fill="white"/>
<g clip-path="url(#clip0_463_1403)">
<path d="M111.626 53.8174C111.836 53.8347 112.038 53.8999 112.219 54.008C112.399 54.1162 112.552 54.2643 112.665 54.441L113.912 56.1037C114.014 56.4133 114.761 56.7229 115.155 56.7229L118.79 57.97C119.205 58.033 119.579 58.257 119.829 58.5935L120.97 60.5658C121.395 60.6719 121.077 61.1893 120.97 61.499L118.688 63.887C118.481 64.0948 118.264 64.7353 117.959 65.0322L117.535 67.1064V68.5612L117.959 69.4944C118.243 69.9259 118.391 70.4328 118.383 70.9493L118.489 71.5728C118.503 72.0587 118.467 72.5447 118.383 73.0234L117.234 75.6193C117.004 76.0236 116.796 76.4399 116.61 76.8663L114.222 82.8894C113.912 83.3135 113.912 84.0304 113.912 84.446C113.964 84.8602 113.964 85.279 113.912 85.6931C113.289 89.5105 111.626 98.876 111.317 99.6904L109.446 105.09C109.166 105.536 108.991 106.039 108.933 106.562C108.619 107.703 108.827 108.012 108.203 108.844L104.674 114.782C104.476 115.161 104.184 115.482 103.826 115.715L101.141 118.714C101.035 119.024 100.619 119.439 100.517 119.855L98.0234 126.188C97.9461 126.633 97.912 127.085 97.9216 127.536V134.183C97.8789 134.645 97.7733 135.099 97.6077 135.532L97.1836 136.987C97.1126 137.1 97.0162 137.194 96.9019 137.263C96.7877 137.331 96.659 137.372 96.5261 137.381C96.4264 137.382 96.3287 137.352 96.2462 137.296L95.0034 136.673C94.7955 136.465 94.1551 136.249 93.8581 135.825L93.3407 135.511C93.1751 135.077 93.0695 134.624 93.0268 134.162L93.3407 132.397C93.3582 131.945 93.3226 131.492 93.2346 131.049L91.784 127.931C91.6151 127.426 91.286 126.989 90.8466 126.688L87.7333 123.884C87.5547 123.717 87.3448 123.586 87.1155 123.499C86.8863 123.412 86.6421 123.372 86.3972 123.38H86.2911C86.0738 123.348 85.8669 123.267 85.6871 123.141C85.5073 123.015 85.3597 122.848 85.2562 122.654L82.97 119.435C82.7621 119.125 82.6603 118.587 82.4525 118.188L81.829 115.906C81.829 115.592 81.6211 114.867 81.6211 114.557V112.169C81.6211 111.745 81.5151 111.321 81.1037 111.232L79.3349 109.781C78.9107 109.675 78.8174 108.933 78.8174 108.636L78.9192 107.495C78.9192 107.071 79.2331 106.562 79.2331 106.146L79.5427 104.483C79.5427 104.174 79.9669 103.635 79.9669 103.342L80.2808 103.135C80.5904 102.71 80.7983 102.286 80.5904 101.888L80.2808 94.8295C80.2353 94.4236 80.346 94.0157 80.5904 93.6885L92.6366 72.5059C92.8877 72.0486 93.2018 71.6288 93.5697 71.2589L96.2674 68.1456C96.6334 67.8516 96.9499 67.5007 97.2048 67.1064L100.212 60.358C100.418 60.0033 100.754 59.743 101.149 59.6327L104.267 58.4832C104.758 58.2362 105.282 58.0619 105.824 57.9657L107.694 57.6561C108.118 57.4483 108.543 57.0326 108.543 56.7187C108.551 56.2376 108.698 55.7693 108.967 55.3699L110.07 54.2416C110.461 54.0372 110.882 53.8942 111.317 53.8174H111.626ZM111.626 50H111.317C110.46 50.0223 109.618 50.2292 108.848 50.6065L108.78 50.6362L108.008 50.895L107.368 51.5312L106.227 52.6765L106.036 52.8673L105.875 53.0836C105.616 53.4282 105.399 53.8028 105.23 54.1992H105.183C104.344 54.341 103.529 54.5995 102.761 54.9669L100.025 55.9807C99.302 56.1977 98.633 56.5659 98.0627 57.0609C97.4923 57.556 97.0336 58.1666 96.717 58.8522L93.9175 65.134L93.7351 65.257L93.3958 65.6473L90.7491 68.663C90.1685 69.2645 89.6707 69.9406 89.2687 70.6736L77.4177 91.5295C76.75 92.4972 76.4124 93.6545 76.4549 94.8295V94.9949L76.7136 100.933L76.1367 101.315V102.634C75.949 103.057 75.8205 103.504 75.755 103.962L75.475 105.459L75.4369 105.68C75.2547 106.189 75.1448 106.722 75.1103 107.262L75 108.292V108.466V108.636C74.9685 109.488 75.1555 110.334 75.543 111.093C75.9305 111.853 76.5058 112.501 77.2141 112.975L77.8037 113.463V114.557C77.8098 115.035 77.8652 115.511 77.9691 115.978C77.9691 116.029 77.9691 116.08 77.9988 116.127V116.415L78.1345 116.911L78.7538 119.193L78.8556 119.558L79.0041 119.859C79.0295 119.919 79.0465 119.978 79.0677 120.037C79.2391 120.571 79.4786 121.08 79.7803 121.552L79.81 121.598L79.8439 121.645L82.0241 124.716C82.4196 125.354 82.9463 125.902 83.5693 126.322C84.1923 126.741 84.8975 127.024 85.6379 127.15L88.2932 129.543L88.3271 129.568L89.5147 132.113L89.2687 133.509L89.2093 133.84V134.175C89.2187 134.909 89.3491 135.637 89.5953 136.329C89.5953 136.376 89.6293 136.423 89.642 136.469L90.0237 138.005L91.3768 138.798L91.4744 138.857C91.8167 139.159 92.1891 139.425 92.5857 139.65L92.7384 139.803L93.294 140.079L94.4308 140.647C95.0748 141.008 95.8008 141.196 96.5388 141.194C97.2983 141.186 98.0439 140.99 98.7097 140.624C99.3755 140.259 99.941 139.735 100.356 139.099L100.683 138.603L100.848 138.03L101.272 136.58V136.516V136.452L101.311 136.329C101.557 135.639 101.688 134.912 101.697 134.179V127.532C101.697 127.367 101.697 127.244 101.697 127.155L104.004 121.28C104.076 121.178 104.157 121.051 104.25 120.903L106.371 118.54C107.048 117.995 107.604 117.314 108.004 116.542L111.346 110.948C111.953 110.102 112.337 109.118 112.462 108.084C112.483 107.91 112.517 107.737 112.564 107.567L112.699 107.071V107.041L112.848 106.82L113.005 106.354L114.875 100.959C115.499 99.0796 117.348 88.0175 117.603 86.4778C117.732 85.8573 117.762 85.2202 117.692 84.5903C117.692 84.5351 117.692 84.48 117.692 84.4291V84.4036L117.734 84.2976L120.122 78.2745L120.173 78.1388L120.22 78.0582C120.419 77.7432 120.589 77.411 120.729 77.0657L121.832 74.5631L121.963 74.2662L122.039 73.9523C122.208 73.1708 122.282 72.3719 122.26 71.5728V71.2547L122.205 70.945L122.141 70.559C122.087 69.5673 121.807 68.601 121.323 67.7341V67.4839L121.513 66.5465L121.679 66.2453L123.689 64.1245L124.283 63.5095L124.533 62.7545V62.7333C124.809 62.1398 124.949 61.4928 124.945 60.8387C124.94 60.1845 124.791 59.5395 124.508 58.9498C124.358 58.6293 124.167 58.3298 123.94 58.059L123.134 56.6636L122.883 56.2394L122.527 55.8873C121.765 55.0549 120.763 54.4798 119.66 54.2416L116.457 53.1345L115.762 52.2056C115.296 51.5375 114.678 50.9893 113.959 50.6059C113.24 50.2226 112.441 50.0149 111.626 50V50Z" fill="url(#paint0_linear_463_1403)"/>
</g>
<defs>
<linearGradient id="paint0_linear_463_1403" x1="99.9707" y1="141.194" x2="-10.8189" y2="49.2129" gradientUnits="userSpaceOnUse">
<stop stop-color="#9BDED9"/>
<stop offset="1" stop-color="#9BDED9" stop-opacity="0"/>
</linearGradient>
<clipPath id="clip0_463_1403">
<rect width="50" height="91.1944" fill="white" transform="translate(75 50)"/>
</clipPath>
</defs>
</svg>
