<svg width="200" height="200" viewBox="0 0 200 200" fill="none" xmlns="http://www.w3.org/2000/svg">
<rect width="200" height="200" rx="100" fill="white"/>
<g clip-path="url(#clip0_463_1400)">
<path d="M50 82.5725C50.3239 80.8863 50.5325 79.1692 51.0072 77.5319C51.5882 75.6404 52.2741 73.7828 53.0616 71.9677C53.6651 70.53 54.7167 70.0863 55.8304 70.5877C56.9441 71.0891 57.2326 72.2472 56.5581 73.6671C51.9124 83.4288 53.4832 94.7081 60.5959 102.615C61.0751 103.148 61.581 103.653 62.0868 104.159L96.8873 138.964C99.0482 141.125 100.952 141.129 103.099 138.964L138.153 103.911C143.575 98.4915 146.217 91.9496 146.078 84.2852C145.842 72.0032 136.316 61.141 124.18 59.3085C115.546 58.004 108.033 60.3734 101.662 66.3458C100.468 67.4684 99.5408 67.4684 98.3516 66.3458C90.0541 58.5497 78.8991 56.7749 68.5295 61.6558C67.7087 62.0418 66.9233 62.2015 66.1423 61.6203C65.8498 61.4084 65.6249 61.1162 65.4949 60.7792C65.365 60.4421 65.3356 60.0746 65.4102 59.7212C65.5389 58.8825 66.1246 58.4521 66.8345 58.1282C77.7026 53.1823 88.0559 54.0949 97.8946 60.8659C98.6134 61.3629 99.279 61.9397 100.007 62.5032C100.867 61.8465 101.697 61.1721 102.567 60.5553C120.812 47.6876 146.379 58.5497 149.641 80.6467C151.052 90.2088 148.469 98.7059 141.809 105.717C135.712 112.128 129.336 118.283 123.08 124.548C117.309 130.331 111.531 136.108 105.748 141.879C103.086 144.542 99.8469 145.212 96.7631 143.703C95.9768 143.316 95.2577 142.805 94.6333 142.19C82.5761 130.171 70.541 118.132 58.5282 106.072C53.6207 101.146 50.8874 95.1207 50.173 88.2165C50.1285 87.9593 50.0708 87.7046 50 87.4533V82.5725Z" fill="url(#paint0_linear_463_1400)"/>
<path d="M96.883 87.3913C97.9701 87.3026 98.9684 87.1561 99.989 87.1517C101.01 87.1473 101.995 87.2937 103.139 87.3824C103.246 87.0807 103.388 86.6947 103.525 86.3131C105.411 81.0417 108.056 76.2363 112.178 72.3582C113.451 71.1292 114.916 70.0864 116.717 69.6427C117.794 69.337 118.947 69.4498 119.944 69.9583C120.941 70.4669 121.71 71.3337 122.095 72.3849C122.898 74.315 122.876 76.3428 122.539 78.344C121.474 84.9642 118.585 90.768 114.268 95.8352C114.066 96.0302 113.928 96.2818 113.873 96.5567C113.817 96.8317 113.847 97.117 113.957 97.3749C114.302 98.2894 114.502 99.2519 114.552 100.228C114.552 101.519 115.053 102.447 115.856 103.405C117.573 105.544 118.513 108.201 118.523 110.943C118.534 113.685 117.614 116.35 115.914 118.502C114.214 120.653 111.835 122.165 109.165 122.789C106.494 123.414 103.691 123.114 101.214 121.939C100.836 121.721 100.407 121.606 99.9712 121.606C99.5351 121.606 99.1066 121.721 98.7288 121.939C96.1723 123.167 93.2642 123.451 90.5183 122.742C87.7724 122.033 85.3653 120.377 83.7224 118.065C82.0866 115.784 81.289 113.008 81.4645 110.206C81.6399 107.405 82.7777 104.75 84.6853 102.691C85.0216 102.247 85.2427 101.727 85.3286 101.178C85.6037 99.9129 85.7191 98.6084 86.0519 97.3616C86.1484 97.0982 86.1662 96.8123 86.1032 96.539C86.0402 96.2656 85.899 96.0165 85.6969 95.8219C81.384 90.7369 78.4777 84.9553 77.466 78.3262C77.2396 76.7501 77.2755 75.1473 77.5725 73.5829C78.2425 70.0332 81.2065 68.5911 84.5078 70.0776C87.0103 71.2046 88.8517 73.1392 90.5157 75.2513C93.1519 78.6094 95.1902 82.3964 96.5413 86.4462C96.6434 86.7524 96.7587 87.0541 96.883 87.3913ZM99.989 113.38C100.677 112.63 101.16 112.049 101.693 111.534C102.607 110.646 103.761 110.589 104.564 111.356C105.367 112.124 105.353 113.34 104.439 114.298C103.743 115.03 103.006 115.718 102.31 116.45C101.613 117.182 101.773 117.875 102.611 118.318C104.374 119.237 106.41 119.487 108.343 119.022C110.276 118.557 111.975 117.409 113.127 115.789C114.29 114.177 114.822 112.195 114.626 110.218C114.429 108.24 113.515 106.402 112.058 105.051C111.609 104.688 111.254 104.222 111.022 103.694C110.791 103.165 110.689 102.588 110.727 102.012C110.758 100.584 110.505 99.1648 109.981 97.8365C109.457 96.5083 108.674 95.2979 107.676 94.2762C106.679 93.2546 105.487 92.4422 104.172 91.8867C102.857 91.3312 101.444 91.0436 100.016 91.041C98.5882 91.0383 97.1742 91.3206 95.8568 91.8712C94.5394 92.4218 93.3451 93.2298 92.3439 94.2477C91.3426 95.2656 90.5545 96.4731 90.0258 97.7994C89.497 99.1257 89.2381 100.544 89.2644 101.972C89.31 102.547 89.2165 103.125 88.9917 103.656C88.767 104.187 88.4176 104.657 87.9732 105.025C86.5198 106.355 85.5987 108.168 85.3808 110.127C85.163 112.085 85.6631 114.056 86.7885 115.674C87.915 117.311 89.5929 118.488 91.5155 118.989C93.4382 119.491 95.4773 119.285 97.2601 118.407C98.2585 117.901 98.3739 117.165 97.5752 116.348C96.8918 115.647 96.1863 114.977 95.5119 114.272C94.6245 113.353 94.6245 112.191 95.401 111.401C96.1775 110.611 97.3622 110.646 98.2718 111.525C98.8309 112.053 99.3278 112.656 99.9979 113.389L99.989 113.38ZM93.1247 88.5893C93.0937 88.4873 93.036 88.2699 92.965 88.0569C91.2655 83.1139 88.8739 78.5703 84.9337 75.0117C84.2316 74.4395 83.4682 73.9469 82.6575 73.543C82.0318 73.1924 81.5482 73.4631 81.4328 74.142C81.2658 74.9338 81.1928 75.7425 81.2154 76.5514C81.5038 81.0373 83.2343 85.0441 85.4973 88.8556C86.3226 90.2621 87.3165 91.5755 88.1595 92.7957L93.1247 88.5893ZM111.805 92.7159C111.873 92.6667 111.934 92.6085 111.987 92.5428C115.235 88.3897 117.573 83.7972 118.536 78.5836C118.757 77.2419 118.804 75.8772 118.674 74.5236C118.585 73.3566 118.035 73.1303 117.001 73.6361C116.419 73.926 115.873 74.2851 115.377 74.7055C111.051 78.517 108.597 83.3979 106.853 88.5671L111.805 92.7159Z" fill="url(#paint1_linear_463_1400)"/>
<path d="M62.131 65.2055C62.1405 65.4576 62.0993 65.709 62.01 65.9449C61.9206 66.1808 61.7848 66.3963 61.6106 66.5788C61.4364 66.7612 61.2274 66.9069 60.9959 67.0071C60.7644 67.1073 60.5152 67.1601 60.263 67.1623C60.0022 67.1713 59.7423 67.1276 59.4988 67.0339C59.2552 66.9403 59.0331 66.7985 58.8455 66.6172C58.6579 66.4358 58.5088 66.2185 58.407 65.9783C58.3052 65.738 58.2528 65.4798 58.2529 65.2189C58.2721 64.7105 58.485 64.2287 58.848 63.8723C59.211 63.5159 59.6966 63.3118 60.2053 63.302C60.7118 63.3031 61.1977 63.5033 61.5579 63.8594C61.9182 64.2156 62.124 64.699 62.131 65.2055Z" fill="url(#paint2_linear_463_1400)"/>
<path d="M97.6947 104.723C97.7005 104.975 97.6565 105.226 97.565 105.462C97.4735 105.697 97.3364 105.912 97.1616 106.094C96.9868 106.276 96.7777 106.422 96.5463 106.524C96.3149 106.625 96.0658 106.679 95.8133 106.684C95.5521 106.699 95.2906 106.661 95.0445 106.572C94.7984 106.483 94.5729 106.346 94.3816 106.167C94.1902 105.989 94.0371 105.773 93.9314 105.534C93.8258 105.295 93.7697 105.036 93.7667 104.775C93.7637 104.513 93.8138 104.254 93.914 104.012C94.0141 103.77 94.1623 103.551 94.3494 103.368C94.5366 103.186 94.7589 103.043 95.0029 102.948C95.2469 102.854 95.5075 102.81 95.7689 102.819C96.0213 102.814 96.272 102.86 96.5063 102.954C96.7406 103.048 96.9538 103.187 97.1333 103.365C97.3128 103.542 97.4549 103.754 97.5513 103.987C97.6477 104.22 97.6965 104.47 97.6947 104.723Z" fill="url(#paint3_linear_463_1400)"/>
<path d="M105.908 104.776C105.908 105.028 105.858 105.278 105.761 105.511C105.664 105.744 105.521 105.956 105.342 106.133C105.162 106.31 104.949 106.451 104.715 106.545C104.481 106.64 104.231 106.687 103.978 106.684C103.717 106.692 103.457 106.647 103.213 106.551C102.97 106.456 102.748 106.312 102.562 106.129C102.375 105.945 102.228 105.726 102.129 105.484C102.03 105.242 101.981 104.983 101.985 104.721C101.988 104.46 102.045 104.202 102.152 103.963C102.258 103.724 102.412 103.51 102.604 103.332C102.795 103.154 103.021 103.017 103.267 102.929C103.513 102.841 103.775 102.803 104.036 102.819C104.288 102.821 104.538 102.874 104.769 102.974C105.001 103.075 105.21 103.22 105.385 103.403C105.559 103.585 105.696 103.8 105.786 104.036C105.875 104.272 105.917 104.524 105.908 104.776Z" fill="url(#paint4_linear_463_1400)"/>
</g>
<defs>
<linearGradient id="paint0_linear_463_1400" x1="100.007" y1="144.494" x2="28" y2="4.5" gradientUnits="userSpaceOnUse">
<stop stop-color="#9BDED9"/>
<stop offset="1" stop-color="#9BDED9" stop-opacity="0"/>
</linearGradient>
<linearGradient id="paint1_linear_463_1400" x1="100.039" y1="123.124" x2="50.73" y2="50.4651" gradientUnits="userSpaceOnUse">
<stop stop-color="#9BDED9"/>
<stop offset="1" stop-color="#9BDED9" stop-opacity="0"/>
</linearGradient>
<linearGradient id="paint2_linear_463_1400" x1="60.1926" y1="67.1635" x2="56.9003" y2="61.409" gradientUnits="userSpaceOnUse">
<stop stop-color="#9BDED9"/>
<stop offset="1" stop-color="#9BDED9" stop-opacity="0"/>
</linearGradient>
<linearGradient id="paint3_linear_463_1400" x1="95.7309" y1="106.687" x2="92.4497" y2="100.891" gradientUnits="userSpaceOnUse">
<stop stop-color="#9BDED9"/>
<stop offset="1" stop-color="#9BDED9" stop-opacity="0"/>
</linearGradient>
<linearGradient id="paint4_linear_463_1400" x1="103.947" y1="106.685" x2="100.664" y2="100.891" gradientUnits="userSpaceOnUse">
<stop stop-color="#9BDED9"/>
<stop offset="1" stop-color="#9BDED9" stop-opacity="0"/>
</linearGradient>
<clipPath id="clip0_463_1400">
<rect width="100" height="89.4928" fill="white" transform="translate(50 55)"/>
</clipPath>
</defs>
</svg>
