<svg width="200" height="200" viewBox="0 0 200 200" fill="none" xmlns="http://www.w3.org/2000/svg">
<rect width="200" height="200" rx="100" fill="white"/>
<path d="M97.2195 146L96.9465 147.981L97.084 148L97.2227 148L97.2195 146ZM92.3886 145.325L92.7321 143.355L92.7188 143.352L92.3886 145.325ZM68.7348 132.966L70.1655 131.569L70.1568 131.56L68.7348 132.966ZM56.3895 107.944L54.4041 108.184L54.4041 108.185L56.3895 107.944ZM70.9433 68.977L72.2857 70.4596L72.2898 70.4558L70.9433 68.977ZM94.0308 58.4166L94.2692 60.4024L94.2789 60.4012L94.2885 60.3999L94.0308 58.4166ZM126.475 66.8997L125.269 68.4949L125.269 68.4953L126.475 66.8997ZM143.429 94.9184L145.4 94.5779L145.4 94.5771L143.429 94.9184ZM144 99.2732H146V99.1461L145.984 99.02L144 99.2732ZM144 104.773L145.917 105.344L146 105.065V104.773H144ZM143.856 105.435L141.875 105.159L141.866 105.228L141.861 105.298L143.856 105.435ZM136.677 126.286L138.331 127.41L138.334 127.406L136.677 126.286ZM107.622 145.312L107.986 147.279L107.988 147.278L107.622 145.312ZM102.708 145.991L102.711 147.991L102.858 147.991L103.003 147.969L102.708 145.991ZM92.846 74.3029V72.3029C91.7414 72.3029 90.846 73.1983 90.846 74.3029H92.846ZM107.073 74.3029H109.073C109.073 73.1983 108.178 72.3029 107.073 72.3029V74.3029ZM107.073 123.024H109.073H107.073ZM92.846 123.024H90.846H92.846ZM93.1509 89.5522C92.0463 89.5522 91.1509 90.4476 91.1509 91.5522C91.1509 92.6567 92.0463 93.5522 93.1509 93.5522V89.5522ZM107.073 93.5522C108.178 93.5522 109.073 92.6567 109.073 91.5522C109.073 90.4476 108.178 89.5522 107.073 89.5522V93.5522ZM133.369 73.9448C134.15 73.1639 134.151 71.8976 133.37 71.1164C132.589 70.3353 131.322 70.3351 130.541 71.1161L133.369 73.9448ZM68.7278 132.915C67.9466 133.696 67.9465 134.962 68.7274 135.743C69.5084 136.524 70.7747 136.525 71.5559 135.744L68.7278 132.915ZM97.4925 144.019C95.7989 143.785 94.2866 143.626 92.7321 143.355L92.0451 147.295C93.6879 147.582 95.4166 147.77 96.9465 147.981L97.4925 144.019ZM92.7188 143.352C84.1406 141.916 76.2419 137.789 70.1655 131.569L67.3041 134.364C73.9736 141.192 82.6432 145.721 92.0584 147.298L92.7188 143.352ZM70.1568 131.56C63.5533 124.883 59.498 116.95 58.3749 107.702L54.4041 108.185C55.642 118.377 60.1335 127.114 67.3128 134.373L70.1568 131.56ZM58.375 107.703C56.5802 92.9065 61.227 80.4715 72.2857 70.4596L69.601 67.4943C57.5809 78.3767 52.4526 92.0965 54.4041 108.184L58.375 107.703ZM72.2898 70.4558C78.3916 64.9005 86.0749 61.3861 94.2692 60.4024L93.7924 56.4309C84.7721 57.5138 76.3141 61.3825 69.5969 67.4981L72.2898 70.4558ZM94.2885 60.3999C105.715 58.9152 116.09 61.5522 125.269 68.4949L127.682 65.3046C117.642 57.711 106.209 54.8174 93.7731 56.4333L94.2885 60.3999ZM125.269 68.4953C134.193 75.2399 139.543 84.201 141.459 95.2597L145.4 94.5771C143.316 82.5468 137.437 72.6778 127.681 65.3042L125.269 68.4953ZM141.459 95.2589C141.697 96.6401 141.817 97.9667 142.016 99.5264L145.984 99.02C145.808 97.6445 145.658 96.0708 145.4 94.5779L141.459 95.2589ZM142 99.2732V104.773H146V99.2732H142ZM142.083 104.203C141.99 104.516 141.92 104.836 141.875 105.159L145.837 105.711C145.854 105.587 145.881 105.464 145.917 105.344L142.083 104.203ZM141.861 105.298C141.373 112.408 139.013 119.262 135.021 125.166L138.334 127.406C142.722 120.918 145.315 113.386 145.852 105.572L141.861 105.298ZM135.023 125.161C128.285 135.071 119.063 141.149 107.256 143.346L107.988 147.278C120.854 144.885 130.999 138.194 138.331 127.41L135.023 125.161ZM107.258 143.345C105.635 143.645 104.271 143.737 102.414 144.013L103.003 147.969C104.421 147.758 106.359 147.579 107.986 147.279L107.258 143.345ZM102.705 143.991L97.2164 144L97.2227 148L102.711 147.991L102.705 143.991ZM92.846 76.3029H107.073V72.3029H92.846V76.3029ZM105.073 74.3029V123.024H109.073V74.3029H105.073ZM105.073 123.024C105.073 124.38 104.534 125.68 103.576 126.638L106.404 129.467C108.113 127.758 109.073 125.441 109.073 123.024H105.073ZM103.576 126.638C102.617 127.597 101.316 128.136 99.9595 128.136V132.136C102.376 132.136 104.694 131.176 106.404 129.467L103.576 126.638ZM99.9595 128.136C98.6031 128.136 97.3024 127.597 96.3435 126.638L93.5155 129.467C95.2247 131.176 97.5427 132.136 99.9595 132.136V128.136ZM96.3435 126.638C95.3846 125.68 94.846 124.38 94.846 123.024H90.846C90.846 125.441 91.8063 127.758 93.5155 129.467L96.3435 126.638ZM94.846 123.024V74.3029H90.846V123.024H94.846ZM93.1509 93.5522H107.073V89.5522H93.1509V93.5522ZM130.541 71.1161L68.7278 132.915L71.5559 135.744L133.369 73.9448L130.541 71.1161Z" fill="url(#paint0_linear_463_1402)"/>
<defs>
<linearGradient id="paint0_linear_463_1402" x1="100" y1="146" x2="0.0114353" y2="-5.56561" gradientUnits="userSpaceOnUse">
<stop stop-color="#9BDED9"/>
<stop offset="1" stop-color="#9BDED9" stop-opacity="0"/>
</linearGradient>
</defs>
</svg>
