<svg width="200" height="200" viewBox="0 0 200 200" fill="none" xmlns="http://www.w3.org/2000/svg">
<rect width="200" height="200" rx="100" fill="white"/>
<g clip-path="url(#clip0_463_1401)">
<path d="M149.433 112.196C149.027 110.914 148.607 109.632 148.191 108.355C147.684 106.779 147.137 105.153 146.641 103.541C146.532 103.15 146.532 102.737 146.641 102.345C147.147 100.663 147.715 98.9605 148.257 97.3137C148.627 96.1787 148.997 95.0487 149.362 93.9137C150.948 88.9479 149.438 84.3368 145.232 81.2458L142.82 79.5027C141.3 78.4183 139.749 77.2934 138.259 76.1533C137.85 75.8298 137.536 75.4005 137.352 74.9119C136.744 73.1789 136.167 71.4004 135.609 69.6775C135.275 68.6641 134.946 67.6507 134.596 66.6372C132.954 61.7221 129.052 58.8947 123.894 58.8845C122.952 58.8845 122.009 58.8845 121.067 58.8845C119.116 58.8845 117.099 58.8845 115.123 58.8541C114.637 58.8374 114.165 58.6866 113.76 58.4183C112.458 57.5113 111.145 56.5536 109.878 55.6314C108.764 54.8207 107.603 53.9745 106.453 53.1637C102.313 50.2552 97.5602 50.2856 93.4203 53.2549L90.75 55.1855C89.2704 56.2648 87.7401 57.3745 86.1895 58.4386C85.8259 58.6856 85.4021 58.8292 84.9633 58.8541C82.9364 58.8896 80.8336 58.8845 78.8168 58.8795C77.9808 58.8795 77.1447 58.8795 76.3086 58.8795C70.9121 58.8795 67.0205 61.6866 65.3484 66.7741C65.0815 67.5983 64.8113 68.4276 64.5376 69.262C63.9347 71.1318 63.3063 73.0725 62.6679 74.9575C62.503 75.4148 62.2155 75.818 61.8369 76.1229C60.19 77.3745 58.4773 78.6109 56.8204 79.8017L54.8594 81.2205C50.5067 84.3824 49.0119 88.9428 50.6739 94.0707L51.4492 96.432C52.0674 98.3069 52.7109 100.248 53.2886 102.168C53.4266 102.665 53.4266 103.191 53.2886 103.688C52.7819 105.396 52.2042 107.124 51.6519 108.791C51.3023 109.86 50.9476 110.929 50.603 112.003C49.0322 116.929 50.5321 121.509 54.7125 124.57C55.6245 125.225 56.5197 125.869 57.398 126.5C58.8776 127.57 60.4079 128.679 61.8926 129.789C62.2112 130.045 62.4561 130.38 62.602 130.762C63.1087 132.206 63.5749 133.681 64.0411 135.109C64.5072 136.538 65.0241 138.119 65.5612 139.619C66.2349 141.724 67.5506 143.564 69.3236 144.883C71.0966 146.201 73.238 146.932 75.4472 146.972C76.4961 147.007 77.5551 146.972 78.5787 146.972H79.2222H79.9823H81.4163C82.5767 146.972 83.7776 146.972 84.9633 147.002C85.419 147.021 85.8614 147.161 86.2453 147.407C88.0289 148.649 89.7923 149.941 91.5506 151.218L93.1619 152.394C95.1226 153.93 97.5229 154.8 100.013 154.876C102.485 154.819 104.874 153.974 106.833 152.464C107.583 151.924 108.331 151.38 109.078 150.833C110.598 149.723 112.179 148.573 113.755 147.478C114.158 147.206 114.627 147.049 115.113 147.022C116.567 147.022 118.052 147.022 119.481 147.022C121.082 147.022 122.734 147.022 124.365 146.987C129.275 146.86 132.979 144.088 134.566 139.386C134.925 138.307 135.275 137.222 135.63 136.138C136.177 134.441 136.744 132.687 137.342 130.98C137.527 130.492 137.843 130.064 138.254 129.743C139.506 128.796 140.788 127.858 142.055 126.951C143.195 126.131 144.37 125.279 145.516 124.418C147.401 123.077 148.802 121.162 149.508 118.959C150.214 116.756 150.188 114.383 149.433 112.196ZM54.7125 113.326C55.0469 112.282 55.3915 111.238 55.7259 110.194C56.3643 108.238 57.0281 106.217 57.6311 104.215C57.8704 103.388 57.8704 102.509 57.6311 101.682C57.018 99.6547 56.3441 97.5823 55.6955 95.601C55.3577 94.5876 55.03 93.5742 54.7125 92.5607C53.699 89.414 54.5858 86.7234 57.246 84.7776L59.6276 83.07C61.3251 81.8589 63.0732 80.6023 64.7555 79.3051C65.5621 78.6597 66.18 77.8091 66.5442 76.8425C67.279 74.8156 67.9478 72.7127 68.5964 70.691C68.8498 69.8903 69.1065 69.0897 69.3666 68.2891C70.5169 64.7421 72.6755 63.1612 76.3745 63.1612H78.9385C81.168 63.1612 83.4989 63.1612 85.7487 63.1257C86.5776 63.1003 87.3824 62.8403 88.0694 62.3758C89.9544 61.0634 91.8394 59.6902 93.6433 58.3626L95.5587 56.9691C98.6598 54.7244 101.31 54.7244 104.426 56.9691C105.223 57.54 106.017 58.1177 106.808 58.7021C108.444 59.8979 110.137 61.1343 111.839 62.3048C112.59 62.8102 113.468 63.0931 114.373 63.1206C116.567 63.1663 118.797 63.1612 120.96 63.1561H124.001C127.188 63.1561 129.503 64.8283 130.512 67.8432C130.914 69.0458 131.306 70.2518 131.687 71.4612C132.265 73.2549 132.863 75.1146 133.501 76.9286C133.821 77.8083 134.381 78.5807 135.118 79.1581C136.851 80.4857 138.665 81.7779 140.383 83.0294L142.683 84.6864C145.46 86.7132 146.336 89.3938 145.283 92.657C144.975 93.613 144.663 94.569 144.345 95.525C143.686 97.5519 143.007 99.5787 142.384 101.661C142.145 102.489 142.145 103.367 142.384 104.195C143.002 106.252 143.686 108.325 144.34 110.331C144.654 111.284 144.968 112.241 145.277 113.194C146.342 116.498 145.49 119.107 142.673 121.165C141.852 121.768 141.021 122.366 140.19 122.964C138.543 124.144 136.846 125.365 135.209 126.627C134.417 127.253 133.81 128.083 133.456 129.029C132.746 131.025 132.093 133.083 131.459 135.054C131.165 135.973 130.87 136.886 130.573 137.795C129.524 141.008 127.269 142.654 123.869 142.69C122.855 142.69 121.842 142.69 120.859 142.69H119.486H117.966C116.739 142.69 115.478 142.69 114.226 142.73C113.403 142.769 112.607 143.03 111.92 143.485C110.086 144.762 108.257 146.1 106.483 147.392L104.325 148.963C101.325 151.137 98.6496 151.132 95.6448 148.963L93.7041 147.549C91.8901 146.222 90.0203 144.854 88.1302 143.556C87.3776 143.056 86.5002 142.775 85.5967 142.746C84.259 142.715 82.906 142.705 81.543 142.705H76.2427C72.6957 142.705 70.5017 141.094 69.392 137.699C69.0879 136.77 68.789 135.843 68.4951 134.917C67.8668 132.951 67.2131 130.914 66.5138 128.928C66.1936 128.048 65.6336 127.276 64.8974 126.698C63.2354 125.431 61.5126 124.164 59.8303 122.994C58.9587 122.366 58.0889 121.736 57.2207 121.104C54.5604 119.163 53.7041 116.467 54.7125 113.326ZM75.5131 89.4343L76.4758 89.6826C79.2323 90.3971 82.0852 91.1369 84.9177 91.7703C85.6778 91.9375 85.9767 92.0996 86.2858 92.7026C88.8903 97.861 92.9592 100.658 98.376 101.058C98.8016 101.089 99.2222 101.104 99.6377 101.104C104.092 101.104 108.156 99.3862 111.733 95.9861C116.648 91.3142 119.572 85.0208 120.935 76.1685C121.046 75.4591 120.859 74.1822 120.114 73.7008C119.369 73.2195 118.249 73.3613 117.515 73.7008C114.687 75.0073 111.552 75.5003 108.46 75.1247L106.271 74.8663C104.274 74.6231 102.217 74.3596 100.155 74.2532C93.1518 73.8326 87.583 77.6532 85.5916 84.2151C85.3455 85.1039 85.1576 86.0078 85.0292 86.921C84.9988 87.1136 84.9684 87.3112 84.9329 87.5037C84.7279 87.4885 84.5245 87.4563 84.3248 87.4074C81.548 86.6828 79.2273 86.0596 76.8913 85.3806C76.5259 85.2422 76.1367 85.1776 75.7461 85.1906C75.3556 85.2037 74.9715 85.2941 74.6162 85.4566C74.3986 85.5836 74.2088 85.7531 74.0582 85.9551C73.9076 86.1571 73.7992 86.3874 73.7396 86.6322C73.6491 86.9122 73.6172 87.2079 73.646 87.5009C73.6747 87.7938 73.7635 88.0776 73.9068 88.3347C74.0888 88.6149 74.3244 88.8562 74.6001 89.0449C74.8758 89.2336 75.1861 89.366 75.5131 89.4343ZM92.0826 92.0439C93.7294 91.8412 95.432 91.6284 97.0839 91.2939C101.182 90.413 105.069 88.7399 108.525 86.3687C110.461 85.0715 109.737 83.6274 109.468 83.2169C109.325 82.9829 109.136 82.7798 108.914 82.6197C108.691 82.4596 108.438 82.3456 108.171 82.2846C107.824 82.2323 107.471 82.2502 107.131 82.3372C106.792 82.4243 106.473 82.5787 106.195 82.7913C101.425 85.9953 95.8314 87.7547 90.0862 87.8584C89.8328 87.8584 89.5794 87.8584 89.3312 87.8584C89.1639 84.0378 92.4221 79.7865 96.3846 78.8541C98.9993 78.241 101.594 78.5856 104.34 78.9504L105.257 79.072C109.098 79.5787 111.535 79.9182 116.116 78.7984C116.101 78.8466 116.089 78.8957 116.081 78.9453C115.832 79.9233 115.574 80.8455 115.31 81.7525C113.745 86.698 111.698 90.2248 108.855 92.8445C105.136 96.2699 101.254 97.4759 96.9369 96.5334C94.4371 95.9346 92.273 94.3766 90.9121 92.1959L92.0826 92.0439ZM110.324 115.647C110.313 113.781 109.578 111.993 108.274 110.659C106.97 109.325 105.199 108.549 103.334 108.494C101.47 108.44 99.6568 109.111 98.2772 110.367C96.8977 111.622 96.0593 113.364 95.9387 115.226C95.7993 117.827 95.7993 120.434 95.9387 123.035C96.0139 124.898 96.8173 126.657 98.1761 127.935C99.5348 129.212 101.341 129.905 103.205 129.865H103.474C107.33 129.738 110.274 126.602 110.324 122.573C110.324 121.783 110.324 120.987 110.324 120.197V117.988C110.34 117.202 110.34 116.412 110.329 115.626L110.324 115.647ZM106.038 120.324C106.038 121.139 106.038 121.986 106.038 122.806C106.02 123.497 105.755 124.159 105.289 124.67C104.824 125.181 104.19 125.507 103.504 125.588C102.665 125.687 101.821 125.448 101.158 124.925C100.928 124.74 100.739 124.509 100.603 124.248C100.467 123.986 100.387 123.699 100.367 123.404C100.155 120.572 100.155 117.729 100.367 114.897C100.389 114.602 100.47 114.315 100.607 114.054C100.744 113.792 100.933 113.562 101.163 113.377C101.722 112.929 102.418 112.689 103.134 112.698C103.25 112.69 103.367 112.69 103.484 112.698C104.189 112.767 104.843 113.098 105.318 113.624C105.792 114.151 106.052 114.836 106.048 115.545C106.048 116.356 106.048 117.187 106.048 117.988C106.048 118.358 106.048 118.732 106.048 119.102C106.048 119.472 106.038 119.913 106.043 120.303L106.038 120.324ZM93.4913 117.967C93.4913 117.101 93.4913 116.204 93.4913 115.312C93.4385 113.466 92.6679 111.713 91.3432 110.426C90.0185 109.14 88.2441 108.42 86.3973 108.421H86.3314C84.5116 108.397 82.7531 109.078 81.4235 110.321C80.0939 111.563 79.2961 113.272 79.1969 115.089C79.0651 117.815 79.0651 120.557 79.1969 123.232C79.3098 125.048 80.1158 126.75 81.4482 127.988C82.7807 129.227 84.5379 129.906 86.3567 129.885H86.4074C88.2324 129.876 89.9844 129.168 91.3038 127.907C92.6231 126.646 93.4095 124.928 93.5014 123.105C93.547 122.188 93.5369 121.261 93.5014 120.369C93.5014 120.187 93.5014 120.004 93.5014 119.822V119.148C93.4913 118.733 93.4963 118.342 93.4963 117.947L93.4913 117.967ZM89.1994 120.06C89.1994 120.177 89.1994 120.298 89.1994 120.415C89.1994 121.215 89.1994 122.041 89.1994 122.837C89.1835 123.577 88.877 124.282 88.3461 124.799C87.8153 125.315 87.1026 125.603 86.3618 125.598H86.3213C85.589 125.629 84.8747 125.367 84.3351 124.871C83.7955 124.375 83.4747 123.686 83.4431 122.953C83.3418 120.344 83.3469 117.765 83.4431 115.292C83.4876 114.573 83.8113 113.9 84.3453 113.416C84.8792 112.932 85.581 112.676 86.301 112.703H86.3973C87.1207 112.709 87.8139 112.993 88.333 113.497C88.852 114.001 89.1569 114.686 89.1842 115.408C89.2298 116.29 89.2197 117.197 89.1842 118.074C89.1842 118.479 89.1842 118.885 89.1842 119.295V120.055L89.1994 120.06ZM66.6506 114.659C66.5012 114.39 66.4158 114.091 66.4008 113.784C66.3859 113.478 66.4419 113.172 66.5645 112.89C66.8377 112.319 67.2994 111.859 67.8718 111.588C69.8429 110.544 71.505 109.678 73.1974 108.816C74.1449 108.34 75.0368 108.309 75.6955 108.705C76.0705 108.933 76.7089 109.515 76.7089 110.878C76.7089 116.412 76.7089 122.026 76.7089 127.473C76.7343 128.045 76.5705 128.61 76.2427 129.08C76.0431 129.331 75.7864 129.532 75.4939 129.665C75.2014 129.798 74.8814 129.86 74.5604 129.845C74.2816 129.86 74.0027 129.817 73.7411 129.72C73.4795 129.622 73.2409 129.471 73.0403 129.277C72.821 129.032 72.6533 128.745 72.5471 128.433C72.4409 128.121 72.3984 127.792 72.4221 127.463V114.056L72.3005 114.121C71.4442 114.562 70.6587 114.973 69.8683 115.373C68.2417 116.214 67.127 115.555 66.6506 114.659ZM115.229 125.36C117.547 122.448 119.866 119.538 122.186 116.63L127.254 110.291C128.485 108.771 129.666 109.044 130.441 109.561C130.676 109.706 130.876 109.899 131.03 110.128C131.184 110.357 131.287 110.617 131.333 110.889C131.365 111.267 131.318 111.647 131.194 112.006C131.07 112.365 130.872 112.694 130.613 112.971L128.951 115.054C125.556 119.315 122.05 123.719 118.548 128.01C118.255 128.316 117.904 128.559 117.515 128.726C117.125 128.892 116.707 128.978 116.283 128.978H116.192C115.574 128.978 115.179 128.472 114.859 127.995C114.758 127.863 114.662 127.727 114.56 127.62L114.185 127.215L114.454 126.708C114.555 126.526 114.642 126.364 114.718 126.201C114.861 125.905 115.032 125.624 115.229 125.36ZM121.482 112.236C121.481 112.746 121.38 113.251 121.184 113.722C120.988 114.193 120.701 114.62 120.34 114.98C119.978 115.339 119.549 115.624 119.078 115.818C118.606 116.011 118.1 116.11 117.591 116.108H117.555C116.518 116.1 115.527 115.681 114.799 114.942C114.436 114.579 114.149 114.148 113.955 113.673C113.761 113.198 113.664 112.689 113.669 112.176C113.691 111.147 114.112 110.166 114.842 109.441C115.573 108.716 116.556 108.303 117.586 108.289H117.616C118.651 108.304 119.638 108.727 120.362 109.466C121.086 110.206 121.489 111.201 121.482 112.236ZM131.85 125.781C131.856 126.294 131.76 126.802 131.567 127.277C131.374 127.752 131.087 128.184 130.725 128.546C130.362 128.908 129.93 129.194 129.455 129.387C128.98 129.58 128.471 129.675 127.958 129.667C126.925 129.667 125.933 129.257 125.203 128.526C124.472 127.795 124.061 126.804 124.061 125.771C124.061 124.737 124.472 123.746 125.203 123.015C125.933 122.285 126.925 121.874 127.958 121.874C128.992 121.877 129.982 122.29 130.712 123.022C131.442 123.755 131.851 124.747 131.85 125.781Z" fill="url(#paint0_linear_463_1401)"/>
</g>
<defs>
<linearGradient id="paint0_linear_463_1401" x1="100.006" y1="154.876" x2="-19.7087" y2="-19.8719" gradientUnits="userSpaceOnUse">
<stop stop-color="#9BDED9"/>
<stop offset="1" stop-color="#9BDED9" stop-opacity="0"/>
</linearGradient>
<clipPath id="clip0_463_1401">
<rect width="100" height="103.881" fill="white" transform="translate(50 51)"/>
</clipPath>
</defs>
</svg>
