<svg width="48" height="85" viewBox="0 0 48 85" fill="none" xmlns="http://www.w3.org/2000/svg">
<path d="M14.82 23.82L22 16.66V45H26V16.66L33.18 23.84L36 21L24 9L12 21L14.82 23.82ZM12 7H36V3H12V7Z" fill="#23718A"/>
<path d="M9.71414 76H12.2201V67.656H15.0481V65.57H6.90014V67.656H9.71414V76ZM23.8907 76.196C26.7327 76.196 28.6647 74.152 28.6647 70.736C28.6647 67.334 26.7327 65.388 23.8907 65.388C21.0487 65.388 19.1167 67.32 19.1167 70.736C19.1167 74.152 21.0487 76.196 23.8907 76.196ZM23.8907 74.04C22.5187 74.04 21.6787 72.752 21.6787 70.736C21.6787 68.72 22.5187 67.53 23.8907 67.53C25.2627 67.53 26.1167 68.72 26.1167 70.736C26.1167 72.752 25.2627 74.04 23.8907 74.04ZM34.0985 76H36.6045V72.542H37.8225C40.0345 72.542 41.9385 71.45 41.9385 68.972C41.9385 66.396 40.0485 65.57 37.7665 65.57H34.0985V76ZM36.6045 70.568V67.558H37.6265C38.8305 67.558 39.5025 67.922 39.5025 68.972C39.5025 69.994 38.9145 70.568 37.6965 70.568H36.6045Z" fill="#23718A"/>
</svg>
