<svg width="80" height="458" viewBox="0 0 80 458" fill="none" xmlns="http://www.w3.org/2000/svg">
<path d="M44 149C44 148.448 44.4477 148 45 148C45.5523 148 46 148.448 46 149C46 149.552 45.5523 150 45 150C44.4477 150 44 149.552 44 149Z" fill="#31999D"/>
<path fill-rule="evenodd" clip-rule="evenodd" d="M40 149.25C37.3766 149.25 35.25 151.377 35.25 154C35.25 156.623 37.3766 158.75 40 158.75C42.6234 158.75 44.75 156.623 44.75 154C44.75 151.377 42.6234 149.25 40 149.25ZM36.75 154C36.75 152.205 38.2051 150.75 40 150.75C41.7949 150.75 43.25 152.205 43.25 154C43.25 155.795 41.7949 157.25 40 157.25C38.2051 157.25 36.75 155.795 36.75 154Z" fill="#31999D"/>
<path fill-rule="evenodd" clip-rule="evenodd" d="M45.2583 144.833C41.7917 144.446 38.2083 144.446 34.7418 144.833C32.7297 145.058 31.1054 146.643 30.8688 148.665C30.4543 152.21 30.4543 155.79 30.8688 159.335C31.1054 161.357 32.7297 162.942 34.7418 163.167C38.2083 163.554 41.7917 163.554 45.2583 163.167C47.2703 162.942 48.8946 161.357 49.1312 159.335C49.5457 155.79 49.5457 152.21 49.1312 148.665C48.8946 146.643 47.2703 145.058 45.2583 144.833ZM34.9084 146.324C38.2642 145.949 41.7358 145.949 45.0916 146.324C46.4218 146.472 47.4872 147.522 47.6414 148.84C48.0424 152.268 48.0424 155.732 47.6414 159.16C47.4872 160.478 46.4218 161.528 45.0916 161.676C41.7358 162.051 38.2642 162.051 34.9084 161.676C33.5783 161.528 32.5128 160.478 32.3587 159.16C31.9577 155.732 31.9577 152.268 32.3587 148.84C32.5128 147.522 33.5783 146.472 34.9084 146.324Z" fill="#31999D"/>
<path d="M42.7767 228.038L45.4267 224.118C45.689 223.732 45.1916 223.313 44.8117 223.589L41.9536 225.604C41.8597 225.669 41.7454 225.704 41.628 225.704C41.5106 225.704 41.3963 225.669 41.3024 225.604L39.186 224.127C38.5529 223.69 37.6484 223.85 37.2233 224.462L34.5733 228.382C34.311 228.768 34.8084 229.187 35.1883 228.911L38.0464 226.896C38.1403 226.831 38.2546 226.796 38.372 226.796C38.4894 226.796 38.6037 226.831 38.6976 226.896L40.814 228.348C41.4471 228.81 42.3516 228.65 42.7767 228.038Z" fill="#31999D"/>
<path fill-rule="evenodd" clip-rule="evenodd" d="M40 216.25C34.6152 216.25 30.25 220.615 30.25 226C30.25 228.765 31.4019 231.262 33.25 233.036V235.5C33.25 235.741 33.3659 235.967 33.5615 236.108C33.757 236.249 34.0085 236.288 34.2372 236.212L37.0168 235.285C37.9579 235.587 38.9606 235.75 40 235.75C45.3848 235.75 49.75 231.385 49.75 226C49.75 220.615 45.3848 216.25 40 216.25ZM31.75 226C31.75 221.444 35.4437 217.75 40 217.75C44.5563 217.75 48.25 221.444 48.25 226C48.25 230.556 44.5563 234.25 40 234.25C39.0405 234.25 38.1207 234.086 37.2661 233.786C37.1092 233.731 36.9383 233.73 36.7805 233.783L34.75 234.459V232.708C34.75 232.495 34.6591 232.292 34.5002 232.149C32.8112 230.638 31.75 228.443 31.75 226Z" fill="#31999D"/>
<path fill-rule="evenodd" clip-rule="evenodd" d="M38.4877 181.788C39.4723 180.803 40.8076 180.25 42.2 180.25H44.9C45.3142 180.25 45.65 180.586 45.65 181V184.6C45.65 185.014 45.3142 185.35 44.9 185.35H42.2C42.1602 185.35 42.1221 185.366 42.0939 185.394C42.0658 185.422 42.05 185.46 42.05 185.5V187.45H44.9C45.131 187.45 45.349 187.556 45.4912 187.738C45.6333 187.92 45.6836 188.158 45.6276 188.382L44.7276 191.982C44.6441 192.316 44.3442 192.55 44 192.55H42.05V199C42.05 199.414 41.7142 199.75 41.3 199.75H37.7C37.2858 199.75 36.95 199.414 36.95 199V192.55H35C34.5858 192.55 34.25 192.214 34.25 191.8V188.2C34.25 187.786 34.5858 187.45 35 187.45H36.95V185.5C36.95 184.108 37.5031 182.772 38.4877 181.788ZM42.2 181.75C41.2054 181.75 40.2516 182.145 39.5483 182.848C38.8451 183.552 38.45 184.505 38.45 185.5V188.2C38.45 188.614 38.1142 188.95 37.7 188.95H35.75V191.05H37.7C38.1142 191.05 38.45 191.386 38.45 191.8V198.25H40.55V191.8C40.55 191.386 40.8858 191.05 41.3 191.05H43.4144L43.9394 188.95H41.3C40.8858 188.95 40.55 188.614 40.55 188.2V185.5C40.55 185.062 40.7238 184.643 41.0333 184.333C41.3427 184.024 41.7624 183.85 42.2 183.85H44.15V181.75H42.2Z" fill="#31999D"/>
<path d="M40 118C38.9 118 38 117.1 38 116C38 114.9 38.9 114 40 114C41.1 114 42 114.9 42 116C42 117.1 41.1 118 40 118ZM46 116.2C46 112.57 43.35 110 40 110C36.65 110 34 112.57 34 116.2C34 118.54 35.95 121.64 40 125.34C44.05 121.64 46 118.54 46 116.2ZM40 108C44.2 108 48 111.22 48 116.2C48 119.52 45.33 123.45 40 128C34.67 123.45 32 119.52 32 116.2C32 111.22 35.8 108 40 108Z" fill="#31999D"/>
<path d="M36.711 75.9025L35.7825 76.2738V76.2738L36.711 75.9025ZM37.6774 78.3185L38.6059 77.9471L37.6774 78.3185ZM37.3836 80.173L38.1518 80.8132L38.1518 80.8132L37.3836 80.173ZM36.8635 80.7972L37.6317 81.4373L36.8635 80.7972ZM36.9755 83.2672L36.2684 83.9743L36.9755 83.2672ZM38.7328 85.0245L39.4399 84.3174V84.3174L38.7328 85.0245ZM41.2028 85.1365L40.5627 84.3683L41.2028 85.1365ZM41.827 84.6164L42.4672 85.3846L42.4672 85.3846L41.827 84.6164ZM43.6815 84.3226L43.3101 85.2511L43.6815 84.3226ZM46.0975 85.289L46.4689 84.3605L46.0975 85.289ZM32.4868 75.75H35.0088V73.75H32.4868V75.75ZM35.7825 76.2738L36.7489 78.6899L38.6059 77.9471L37.6395 75.5311L35.7825 76.2738ZM36.6154 79.5328L36.0953 80.157L37.6317 81.4373L38.1518 80.8132L36.6154 79.5328ZM36.2684 83.9743L38.0257 85.7316L39.4399 84.3174L37.6826 82.5601L36.2684 83.9743ZM41.843 85.9047L42.4672 85.3846L41.1868 83.8482L40.5627 84.3683L41.843 85.9047ZM43.3101 85.2511L45.7262 86.2175L46.4689 84.3605L44.0529 83.3941L43.3101 85.2511ZM46.25 86.9912V89.5132H48.25V86.9912H46.25ZM45.5132 90.25C37.912 90.25 31.75 84.088 31.75 76.4868H29.75C29.75 85.1926 36.8074 92.25 45.5132 92.25V90.25ZM46.25 89.5132C46.25 89.9201 45.9201 90.25 45.5132 90.25V92.25C47.0247 92.25 48.25 91.0247 48.25 89.5132H46.25ZM45.7262 86.2175C46.0425 86.344 46.25 86.6505 46.25 86.9912H48.25C48.25 85.8327 47.5446 84.7908 46.4689 84.3605L45.7262 86.2175ZM42.4672 85.3846C42.7023 85.1887 43.0259 85.1374 43.3101 85.2511L44.0529 83.3941C43.0867 83.0076 41.9863 83.182 41.1868 83.8482L42.4672 85.3846ZM38.0257 85.7316C39.0619 86.7678 40.7173 86.8429 41.843 85.9047L40.5627 84.3683C40.2316 84.6442 39.7447 84.6221 39.4399 84.3174L38.0257 85.7316ZM36.0953 80.157C35.1571 81.2827 35.2322 82.9381 36.2684 83.9743L37.6826 82.5601C37.3779 82.2553 37.3558 81.7684 37.6317 81.4373L36.0953 80.157ZM36.7489 78.6899C36.8626 78.9741 36.8113 79.2977 36.6154 79.5328L38.1518 80.8132C38.818 80.0137 38.9924 78.9133 38.6059 77.9471L36.7489 78.6899ZM35.0088 75.75C35.3495 75.75 35.656 75.9575 35.7825 76.2738L37.6395 75.5311C37.2092 74.4554 36.1673 73.75 35.0088 73.75V75.75ZM32.4868 73.75C30.9753 73.75 29.75 74.9753 29.75 76.4868H31.75C31.75 76.0799 32.0799 75.75 32.4868 75.75V73.75Z" fill="#31999D"/>
<path d="M35 18C33.9 18 33.01 18.9 33.01 20C33.01 21.1 33.9 22 35 22C36.1 22 37 21.1 37 20C37 18.9 36.1 18 35 18ZM29 2V4H31L34.6 11.59L33.25 14.04C33.09 14.32 33 14.65 33 15C33 16.1 33.9 17 35 17H47V15H35.42C35.28 15 35.17 14.89 35.17 14.75L35.2 14.63L36.1 13H43.55C44.3 13 44.96 12.59 45.3 11.97L48.88 5.48C48.96 5.34 49 5.17 49 5C49 4.45 48.55 4 48 4H33.21L32.27 2H29ZM45 18C43.9 18 43.01 18.9 43.01 20C43.01 21.1 43.9 22 45 22C46.1 22 47 21.1 47 20C47 18.9 46.1 18 45 18Z" fill="#042D41"/>
<path d="M40 41.9C41.16 41.9 42.1 42.84 42.1 44C42.1 45.16 41.16 46.1 40 46.1C38.84 46.1 37.9 45.16 37.9 44C37.9 42.84 38.84 41.9 40 41.9ZM40 50.9C42.97 50.9 46.1 52.36 46.1 53V54.1H33.9V53C33.9 52.36 37.03 50.9 40 50.9ZM40 40C37.79 40 36 41.79 36 44C36 46.21 37.79 48 40 48C42.21 48 44 46.21 44 44C44 41.79 42.21 40 40 40ZM40 49C37.33 49 32 50.34 32 53V56H48V53C48 50.34 42.67 49 40 49Z" fill="#042D41"/>
<path d="M58.7828 259.283C58.9391 259.127 58.9391 258.873 58.7828 258.717L56.2373 256.172C56.081 256.015 55.8278 256.015 55.6716 256.172C55.5154 256.328 55.5154 256.581 55.6716 256.737L57.9343 259L55.6716 261.263C55.5154 261.419 55.5154 261.672 55.6716 261.828C55.8278 261.985 56.081 261.985 56.2373 261.828L58.7828 259.283ZM21 259.4H58.5V258.6H21V259.4Z" fill="#042D41"/>
<path d="M33.3334 344L28.6334 348.7L43.9 364L28.6334 379.3L33.3334 384L53.3334 364L33.3334 344Z" fill="#9BDED9"/>
<path d="M51.3667 289.7L46.6667 285L26.6667 305L46.6667 325L51.3667 320.3L36.1 305L51.3667 289.7Z" fill="#9BDED9"/>
<path d="M50 415.5C50 414.119 51.1193 413 52.5 413C53.8807 413 55 414.119 55 415.5C55 416.881 53.8807 418 52.5 418C51.1193 418 50 416.881 50 415.5Z" fill="white"/>
<path fill-rule="evenodd" clip-rule="evenodd" d="M40 416.125C33.4416 416.125 28.125 421.441 28.125 428C28.125 434.558 33.4416 439.875 40 439.875C46.5583 439.875 51.875 434.558 51.875 428C51.875 421.441 46.5583 416.125 40 416.125ZM31.875 428C31.875 423.513 35.5127 419.875 40 419.875C44.4873 419.875 48.125 423.513 48.125 428C48.125 432.487 44.4873 436.125 40 436.125C35.5127 436.125 31.875 432.487 31.875 428Z" fill="white"/>
<path fill-rule="evenodd" clip-rule="evenodd" d="M53.1456 405.082C44.4792 404.114 35.5208 404.114 26.8544 405.082C21.8243 405.645 17.7634 409.607 17.172 414.663C16.1357 423.524 16.1357 432.476 17.172 441.336C17.7634 446.393 21.8243 450.355 26.8544 450.917C35.5208 451.886 44.4792 451.886 53.1456 450.917C58.1757 450.355 62.2366 446.393 62.828 441.336C63.8643 432.476 63.8643 423.524 62.828 414.663C62.2366 409.607 58.1757 405.645 53.1456 405.082ZM27.2709 408.809C35.6605 407.872 44.3395 407.872 52.7291 408.809C56.0544 409.181 58.7181 411.805 59.1034 415.099C60.1058 423.67 60.1058 432.329 59.1034 440.901C58.7181 444.195 56.0543 446.819 52.7291 447.191C44.3395 448.128 35.6605 448.128 27.2709 447.191C23.9457 446.819 21.2819 444.195 20.8966 440.901C19.8942 432.329 19.8942 423.67 20.8966 415.099C21.2819 411.805 23.9456 409.181 27.2709 408.809Z" fill="white"/>
</svg>
