<svg width="60" height="60" viewBox="0 0 60 60" fill="none" xmlns="http://www.w3.org/2000/svg">
<path d="M40 17.4999C40 16.1192 41.1193 14.9999 42.5 14.9999C43.8807 14.9999 45 16.1192 45 17.4999C45 18.8806 43.8807 19.9999 42.5 19.9999C41.1193 19.9999 40 18.8806 40 17.4999Z" fill="white"/>
<path fill-rule="evenodd" clip-rule="evenodd" d="M30 18.1249C23.4416 18.1249 18.125 23.4415 18.125 29.9999C18.125 36.5583 23.4416 41.8749 30 41.8749C36.5583 41.8749 41.875 36.5583 41.875 29.9999C41.875 23.4415 36.5583 18.1249 30 18.1249ZM21.875 29.9999C21.875 25.5126 25.5127 21.8749 30 21.8749C34.4873 21.8749 38.125 25.5126 38.125 29.9999C38.125 34.4872 34.4873 38.1249 30 38.1249C25.5127 38.1249 21.875 34.4872 21.875 29.9999Z" fill="white"/>
<path fill-rule="evenodd" clip-rule="evenodd" d="M43.1456 7.08241C34.4792 6.11381 25.5208 6.11381 16.8544 7.08241C11.8243 7.6446 7.76342 11.6071 7.17203 16.6634C6.13569 25.5242 6.13569 34.4755 7.17203 43.3363C7.76342 48.3926 11.8243 52.3551 16.8544 52.9173C25.5208 53.8859 34.4792 53.8859 43.1456 52.9173C48.1757 52.3551 52.2366 48.3926 52.828 43.3363C53.8643 34.4755 53.8643 25.5242 52.828 16.6634C52.2366 11.6071 48.1757 7.6446 43.1456 7.08241ZM17.2709 10.8092C25.6605 9.87154 34.3395 9.87154 42.7291 10.8092C46.0544 11.1809 48.7181 13.8049 49.1034 17.0991C50.1058 25.6704 50.1058 34.3293 49.1034 42.9007C48.7181 46.1949 46.0543 48.8189 42.7291 49.1905C34.3395 50.1282 25.6605 50.1282 17.2709 49.1905C13.9457 48.8189 11.2819 46.1949 10.8966 42.9007C9.89415 34.3293 9.89415 25.6704 10.8966 17.0991C11.2819 13.8049 13.9456 11.1809 17.2709 10.8092Z" fill="white"/>
</svg>
