<svg width="134" height="97" viewBox="0 0 134 97" fill="none" xmlns="http://www.w3.org/2000/svg">
<g clip-path="url(#clip0_271_11589)">
<path d="M73.12 41.1139C73.5031 40.7206 73.9617 40.4068 74.4691 40.191C74.9764 39.9752 75.5222 39.8617 76.0745 39.8571C76.6268 39.8524 77.1744 39.9569 77.6854 40.1642C78.1963 40.3715 78.6603 40.6776 79.05 41.0645C80.05 42.053 80.35 43.1108 82.05 43.8126C84.05 44.6134 85.72 46.4521 85.5 48.3798C85.4685 48.7862 85.3558 49.1824 85.1685 49.5455C84.9811 49.9086 84.7229 50.2314 84.4086 50.4952C84.0943 50.759 83.7302 50.9586 83.3374 51.0825C82.9445 51.2064 82.5308 51.2521 82.12 51.2169C81.9384 51.2085 81.7578 51.1853 81.58 51.1477C78.4469 50.4884 75.5333 49.0568 73.11 46.9859C72.7182 46.601 72.4074 46.1432 72.1957 45.6389C71.984 45.1346 71.8754 44.5939 71.8763 44.0478C71.8773 43.5018 71.9877 42.9614 72.2011 42.4578C72.4146 41.9542 72.7269 41.4975 73.12 41.1139ZM79.35 31.5447L81.12 32.2663C81.417 32.3919 81.737 32.4558 82.06 32.4542C82.6322 32.4579 83.1878 32.2644 83.6312 31.9069C84.0747 31.5494 84.3782 31.0503 84.4895 30.4954C84.6008 29.9406 84.5129 29.3647 84.2411 28.867C83.9692 28.3693 83.5303 27.9808 83 27.7684L81.23 27.0468C80.9312 26.9247 80.6111 26.8621 80.2878 26.8624C79.9646 26.8626 79.6446 26.9259 79.346 27.0484C79.0475 27.171 78.7763 27.3504 78.5479 27.5766C78.3195 27.8027 78.1384 28.0712 78.015 28.3665C77.8916 28.6618 77.8282 28.9783 77.8285 29.2979C77.8287 29.6174 77.8927 29.9338 78.0167 30.2289C78.1406 30.524 78.3222 30.7921 78.5509 31.0179C78.7797 31.2437 79.0512 31.4227 79.35 31.5447ZM101.54 20.6706C100.858 20.4595 100.132 20.4241 99.4323 20.5677C98.7323 20.7113 98.081 21.0291 97.54 21.4911C96.2661 19.4195 94.5384 17.6568 92.4841 16.3326C90.4299 15.0085 88.1013 14.1566 85.67 13.8397C80.33 12.7424 78.75 21.066 84.1 21.9953C86.2725 22.212 88.2948 23.1904 89.8007 24.7535C91.3067 26.3166 92.1968 28.3609 92.31 30.5166C92.3185 31.8048 91.8529 33.052 91 34.026C90.1787 34.7004 89.5568 35.5816 89.2 36.5764C88.85 37.7924 90.2 39.9375 91.05 40.7877C92.3022 41.9631 93.0923 43.5393 93.28 45.2362C94 53.5796 87.22 60.0744 75 56.6342C72.5354 55.9122 70.2408 54.7125 68.25 53.1051L67.77 52.7195L67.42 52.3933C62.1 47.6285 64.14 42.5671 66.29 39.5421C67.15 38.7216 69.61 35.5286 69.61 35.5879C75.9 27.2346 76.01 15.6092 68.76 7.99734C64.83 4.25073 59 10.4292 63 14.0473C62.92 13.9781 62.95 13.9979 62.92 13.988C63.05 14.2055 63.17 14.4328 63.28 14.6602C64.4 17.3985 62.9 18.7528 62.12 19.1285C58.9 20.7003 57.12 18.1399 56.36 17.1514C55.6 16.1628 52.68 14.4427 50.66 15.5499C49.689 16.0818 48.9699 16.9712 48.659 18.0246C48.3481 19.078 48.4707 20.2102 49 21.1748C49.25 21.6295 51.76 25.5837 58.52 26.2856C58.9461 26.4013 59.3339 26.6256 59.6445 26.9362C59.9552 27.2468 60.1778 27.6326 60.29 28.0551C60.4645 29.1603 60.2491 30.2912 59.68 31.258C59.16 32.0884 57.41 32.5135 56.26 32.7013C55.0621 32.8012 53.8579 32.8012 52.66 32.7013C47.03 31.9994 40.94 27.7585 39.81 22.1732C38.61 16.2419 43.26 6.98902 51.49 8.38288C56.83 9.47029 58.43 1.16644 53.06 0.227311C46.82 -0.761243 39.93 1.41358 36.06 6.49474L36 6.62325C35.6679 5.90262 35.1351 5.29032 34.4639 4.85794C33.7928 4.42555 33.011 4.19094 32.21 4.18153C31.102 4.18145 30.0387 4.61313 29.2506 5.38297C28.4625 6.1528 28.0132 7.19872 28 8.29391C28 8.89693 28.07 14.0078 31.67 17.5567C31.0313 21.9188 31.8735 26.3672 34.0647 30.2057C36.2559 34.0443 39.6725 37.0565 43.78 38.771C43.78 38.771 48.23 41.4599 44.5 42.7252C43.6606 42.7629 42.8198 42.6898 42 42.5078C41.5509 42.4158 41.112 42.28 40.69 42.1025C40.5 42.0275 40.3162 41.9383 40.14 41.8355L40 41.7268H39.93L40 41.8257C39.672 41.3746 39.2557 40.9932 38.7758 40.7041C38.296 40.415 37.7623 40.224 37.2064 40.1425C36.6506 40.0609 36.0838 40.0905 35.5397 40.2294C34.9956 40.3683 34.4852 40.6137 34.0388 40.9512C33.5924 41.2886 33.219 41.7111 32.9408 42.1938C32.6626 42.6765 32.4852 43.2094 32.4191 43.7611C32.353 44.3127 32.3996 44.8719 32.556 45.4055C32.7125 45.939 32.9757 46.4361 33.33 46.8673L33.49 47.0749L33.6 47.2133L33.78 47.4308C33.91 47.579 34.01 47.6779 34.13 47.7965C34.25 47.9151 34.57 48.2315 34.79 48.4391C35.2216 48.8182 35.6757 49.1714 36.15 49.4968C37.045 50.11 37.9997 50.6333 39 51.0588C40.916 51.8147 42.9412 52.2651 45 52.3933C46.9204 52.5349 48.8505 52.4819 50.76 52.2351L51.43 52.1264C52.2303 52.1558 53.0169 52.3412 53.7445 52.6721C54.4722 53.0029 55.1265 53.4725 55.67 54.0541C72.32 77.5223 110.39 68.8824 101.48 38.9292C101.467 38.7474 101.419 38.5697 101.34 38.4053C100.48 36.3194 101.55 33.2747 101.87 32.4739L101.93 32.3355V32.2565C101.93 32.2565 103.52 27.8772 104.19 25.8111C104.518 24.7765 104.424 23.6564 103.929 22.689C103.434 21.7215 102.577 20.9832 101.54 20.6311V20.6706ZM0 91.54C0 88.5744 2 86.9235 4.25 86.9235C4.76277 86.9224 5.27052 87.0233 5.74298 87.2204C6.21544 87.4174 6.64294 87.7064 7 88.0702L5.85 89.4245C5.44049 89.0025 4.88112 88.7544 4.29 88.7325C3.14 88.7325 2.19 89.7211 2.19 91.4708C2.19 93.2206 3.01 94.2388 4.26 94.2388C4.59136 94.2377 4.91854 94.1656 5.21895 94.0273C5.51936 93.8891 5.78584 93.688 6 93.438L7.13 94.7627C6.77348 95.1803 6.32732 95.514 5.82395 95.7398C5.32058 95.9655 4.77265 96.0775 4.22 96.0676C1.92 96.0676 0 94.5255 0 91.54ZM9.87 91.4412C9.87 88.5546 11.52 86.9235 13.96 86.9235C16.4 86.9235 18 88.5645 18 91.4412C18 94.3179 16.39 96.0676 14 96.0676C11.61 96.0676 9.87 94.3376 9.87 91.4412ZM15.87 91.4412C15.87 89.7409 15.14 88.7325 13.97 88.7325C12.8 88.7325 12.07 89.7211 12.07 91.4412C12.07 93.1613 12.79 94.2388 13.97 94.2388C15.15 94.2388 15.86 93.1514 15.86 91.4412H15.87ZM22.1 87.0718H25.37C27.28 87.0718 28.86 87.7242 28.86 89.8595C28.8954 90.3876 28.7669 90.9138 28.4917 91.3678C28.2165 91.8217 27.8078 92.1819 27.32 92.4001L29.32 95.8996H26.91L25.27 92.7955H24.27V95.8897H22.09L22.1 87.0718ZM25.2 91.1248C26.2 91.1248 26.77 90.6899 26.77 89.8595C26.77 89.0291 26.22 88.7523 25.2 88.7523H24.2V91.1248H25.2ZM34.49 87.0718H37L39.81 95.8897H37.56L37 93.9126H34.41L33.89 95.8897H31.71L34.49 87.0718ZM34.82 92.2419H36.65L36.45 91.4906C36.21 90.6207 35.99 89.5135 35.75 88.6633H35.7C35.48 89.5827 35.24 90.6404 35.02 91.4906L34.82 92.2419ZM43.15 87.0718H45.3V94.1202H48.77V95.8897H43.14L43.15 87.0718ZM57.15 93.527C57.1676 93.0085 57.3277 92.5045 57.6131 92.0691C57.8985 91.6337 58.2984 91.2833 58.77 91.0556C58.445 90.5045 58.2598 89.8838 58.23 89.2466C58.2281 88.93 58.2919 88.6163 58.4175 88.3251C58.5432 88.0339 58.728 87.7712 58.9604 87.5534C59.1929 87.3357 59.4682 87.1674 59.7691 87.059C60.07 86.9507 60.3903 86.9045 60.71 86.9235C60.9928 86.8882 61.28 86.9132 61.5523 86.9967C61.8246 87.0801 62.0757 87.2201 62.2888 87.4074C62.5019 87.5946 62.672 87.8247 62.7877 88.0822C62.9035 88.3398 62.9622 88.6188 62.96 88.9006C62.96 90.0572 62.05 90.769 61.12 91.3819C61.6292 91.951 62.1954 92.4677 62.81 92.924C63.28 92.3122 63.6201 91.6128 63.81 90.8678H65.75C65.4417 91.9384 64.9366 92.9437 64.26 93.8335C64.7422 94.0892 65.2618 94.2693 65.8 94.3673L65.29 96.0775C64.4848 95.8994 63.7124 95.5993 63 95.1878C62.1796 95.7721 61.1911 96.0805 60.18 96.0676C58.15 96.0676 57.13 94.9011 57.13 93.527H57.15ZM60.44 94.4563C60.7926 94.4382 61.1356 94.3364 61.44 94.1597C60.792 93.6441 60.1989 93.0644 59.67 92.4297C59.5174 92.5494 59.3915 92.699 59.3003 92.8691C59.209 93.0393 59.1545 93.2262 59.14 93.4183C59.16 94.0213 59.65 94.4563 60.42 94.4563H60.44ZM60.26 90.2351C60.88 89.8793 61.34 89.5036 61.34 88.95C61.34 88.3964 61.14 88.2976 60.76 88.2976C60.38 88.2976 59.98 88.6535 59.98 89.2861C59.9933 89.6178 60.0822 89.9422 60.24 90.2351H60.26ZM74.66 87.0718H77.77C79.62 87.0718 81.09 87.5759 81.09 89.2664C81.1011 89.6607 80.9977 90.0499 80.7921 90.3879C80.5866 90.726 80.2874 90.9989 79.93 91.1743C80.4007 91.2731 80.8197 91.5364 81.1099 91.9159C81.4001 92.2954 81.5422 92.7657 81.51 93.2403C81.49 95.0889 79.94 95.8897 78 95.8897H74.64L74.66 87.0718ZM77.66 90.5811C78.57 90.5811 78.98 90.1857 78.98 89.5926C78.98 88.9994 78.56 88.7029 77.66 88.7029H76.77V90.591L77.66 90.5811ZM77.84 94.2783C78.84 94.2783 79.4 93.9027 79.4 93.1514C79.4 92.4001 78.88 92.1628 77.84 92.1628H76.78V94.308L77.84 94.2783ZM85.35 87.0718H91V88.8413H87.5V90.4724H90.5V92.2518H87.5V94.1202H91.14V95.8897H85.36L85.35 87.0718ZM96.94 87.0718H99.5L102.28 95.8897H100L99.51 93.9126H96.87L96.36 95.8897H94.18L96.94 87.0718ZM97.27 92.2419H99.1L98.91 91.4906C98.67 90.6207 98.44 89.5135 98.2 88.6633C97.98 89.5827 97.74 90.6404 97.51 91.4906L97.27 92.2419ZM105.39 91.7575V87.0718H107.53V92.0145C107.53 93.6852 108.03 94.2783 109.01 94.2783C109.99 94.2783 110.52 93.6852 110.52 92.0145V87.0718H112.58V91.7575C112.58 94.7232 111.38 96.0676 109.01 96.0676C106.64 96.0676 105.4 94.7232 105.4 91.7575H105.39ZM118.7 88.8413H116.3V87.0718H123.3V88.8413H120.88V95.8897H118.73L118.7 88.8413ZM128.32 92.7955L125.64 87.0816H127.92L128.66 89.0588L129.38 91.0359H129.43C129.68 90.3538 129.92 89.731 130.17 89.0588L130.91 87.0816H133.15L130.46 92.7955V95.8897H128.32V92.7955Z" fill="#31999D"/>
</g>
<defs>
<clipPath id="clip0_271_11589">
<rect width="133.16" height="96.0677" fill="white"/>
</clipPath>
</defs>
</svg>
