<svg width="98" height="70" viewBox="0 0 98 70" fill="none" xmlns="http://www.w3.org/2000/svg">
<path d="M53.2707 29.9569C53.5498 29.6704 53.8839 29.4418 54.2535 29.2846C54.6231 29.1274 55.0208 29.0446 55.4231 29.0413C55.8255 29.0379 56.2245 29.114 56.5967 29.2651C56.969 29.4161 57.307 29.6391 57.5909 29.9209C58.3195 30.6411 58.538 31.4117 59.7765 31.9231C61.2336 32.5064 62.4503 33.846 62.29 35.2504C62.267 35.5465 62.1849 35.8351 62.0485 36.0997C61.912 36.3642 61.7238 36.5994 61.4948 36.7916C61.2658 36.9838 61.0006 37.1292 60.7144 37.2195C60.4282 37.3097 60.1268 37.343 59.8275 37.3174C59.6952 37.3112 59.5636 37.2944 59.4341 37.267C57.1516 36.7867 55.0289 35.7437 53.2634 34.2349C52.978 33.9545 52.7516 33.621 52.5973 33.2536C52.443 32.8862 52.364 32.4922 52.3646 32.0944C52.3653 31.6966 52.4457 31.3029 52.6012 30.936C52.7568 30.5692 52.9843 30.2364 53.2707 29.9569V29.9569ZM57.8095 22.9854L59.099 23.5112C59.3154 23.6026 59.5485 23.6492 59.7838 23.648C60.2007 23.6508 60.6055 23.5098 60.9285 23.2493C61.2516 22.9888 61.4727 22.6252 61.5538 22.221C61.6349 21.8168 61.5709 21.3972 61.3728 21.0346C61.1748 20.672 60.855 20.389 60.4686 20.2343L59.1791 19.7085C58.9615 19.6196 58.7282 19.574 58.4927 19.5742C58.2572 19.5744 58.0241 19.6204 57.8066 19.7097C57.5891 19.799 57.3915 19.9297 57.2251 20.0945C57.0587 20.2593 56.9268 20.4548 56.8369 20.67C56.7469 20.8851 56.7008 21.1157 56.701 21.3485C56.7012 21.5813 56.7478 21.8118 56.8381 22.0268C56.9284 22.2418 57.0607 22.4371 57.2273 22.6016C57.394 22.7661 57.5918 22.8965 57.8095 22.9854V22.9854ZM73.9757 15.0632C73.4787 14.9095 72.9501 14.8837 72.4402 14.9883C71.9302 15.0929 71.4557 15.3244 71.0616 15.661C70.1335 14.1518 68.8748 12.8676 67.3782 11.9029C65.8816 10.9381 64.1852 10.3175 62.4138 10.0867C58.5234 9.28724 57.3724 15.3513 61.27 16.0283C62.8528 16.1862 64.3261 16.899 65.4232 18.0378C66.5204 19.1765 67.1689 20.6659 67.2513 22.2364C67.2575 23.1749 66.9183 24.0836 66.2969 24.7931C65.6986 25.2845 65.2455 25.9264 64.9856 26.6512C64.7306 27.5371 65.7141 29.0999 66.3334 29.7193C67.2456 30.5756 67.8213 31.7239 67.958 32.9602C68.4826 39.0386 63.5431 43.7704 54.6403 41.2641C52.8448 40.7381 51.1731 39.8641 49.7227 38.693L49.373 38.4121L49.118 38.1744C45.2422 34.703 46.7284 31.0156 48.2948 28.8118C48.9213 28.2141 50.7135 25.8878 50.7135 25.931C55.296 19.8453 55.3762 11.3758 50.0943 5.83028C47.2311 3.10073 42.9837 7.60197 45.8979 10.2379C45.8396 10.1875 45.8615 10.2019 45.8396 10.1947C45.9343 10.3531 46.0217 10.5188 46.1019 10.6844C46.9178 12.6794 45.825 13.666 45.2568 13.9397C42.9109 15.0848 41.6141 13.2195 41.0604 12.4993C40.5067 11.7791 38.3794 10.526 36.9077 11.3326C36.2004 11.7201 35.6764 12.3681 35.4499 13.1355C35.2234 13.903 35.3127 14.7278 35.6984 15.4305C35.8805 15.7618 37.7091 18.6426 42.634 19.154C42.9444 19.2382 43.227 19.4017 43.4533 19.628C43.6796 19.8542 43.8418 20.1353 43.9235 20.4431C44.0507 21.2483 43.8938 22.0722 43.4791 22.7766C43.1003 23.3815 41.8254 23.6912 40.9875 23.828C40.1148 23.9008 39.2375 23.9008 38.3648 23.828C34.2631 23.3167 29.8263 20.2271 29.0031 16.1579C28.1288 11.8367 31.5165 5.09568 37.5124 6.11116C41.4028 6.90338 42.5685 0.853707 38.6562 0.169518C34.1101 -0.550681 29.0905 1.03376 26.2711 4.73558L26.2274 4.8292C25.9854 4.30419 25.5972 3.85811 25.1083 3.5431C24.6193 3.2281 24.0498 3.05717 23.4662 3.05031V3.05031C22.659 3.05026 21.8843 3.36475 21.3102 3.92561C20.736 4.48646 20.4086 5.24845 20.3991 6.04634C20.3991 6.48566 20.4501 10.2091 23.0728 12.7946C22.6075 15.9726 23.221 19.2134 24.8174 22.0099C26.4138 24.8065 28.9029 27.001 31.8954 28.2501C31.8954 28.2501 35.1374 30.209 32.4199 31.1309C31.8084 31.1583 31.1959 31.105 30.5986 30.9724C30.2714 30.9054 29.9517 30.8065 29.6442 30.6771C29.5058 30.6225 29.3718 30.5575 29.2435 30.4827L29.1415 30.4035H29.0905L29.1415 30.4755C28.9025 30.1469 28.5992 29.869 28.2497 29.6584C27.9001 29.4478 27.5113 29.3086 27.1063 29.2492C26.7013 29.1898 26.2884 29.2113 25.892 29.3125C25.4956 29.4137 25.1238 29.5925 24.7986 29.8384C24.4733 30.0842 24.2013 30.3921 23.9986 30.7437C23.7959 31.0953 23.6667 31.4836 23.6185 31.8855C23.5704 32.2874 23.6043 32.6948 23.7183 33.0835C23.8323 33.4722 24.024 33.8344 24.2822 34.1485L24.3987 34.2997L24.4789 34.4006L24.61 34.559C24.7047 34.667 24.7776 34.7391 24.865 34.8255C24.9524 34.9119 25.1856 35.1424 25.3458 35.2936C25.6602 35.5698 25.9911 35.8271 26.3366 36.0642C26.9887 36.511 27.6842 36.8922 28.413 37.2021C29.8088 37.7529 31.2843 38.081 32.7842 38.1744C34.1833 38.2775 35.5894 38.2389 36.9806 38.0592L37.4687 37.98C38.0518 38.0014 38.6248 38.1365 39.1549 38.3775C39.685 38.6185 40.1618 38.9607 40.5577 39.3843C52.6879 56.4819 80.4233 50.1873 73.932 28.3653C73.9225 28.2329 73.8879 28.1034 73.83 27.9836C73.2035 26.464 73.983 24.2458 74.2162 23.6624L74.2599 23.5616V23.504C74.2599 23.504 75.4182 20.3135 75.9064 18.8083C76.1452 18.0546 76.077 17.2385 75.7165 16.5337C75.3559 15.8289 74.7314 15.291 73.9757 15.0344V15.0632ZM0 66.6943C0 64.5337 1.45708 63.331 3.09629 63.331C3.46986 63.3302 3.83977 63.4037 4.18398 63.5472C4.52818 63.6908 4.83963 63.9013 5.09977 64.1664L4.26195 65.1531C3.96361 64.8456 3.55608 64.6649 3.12543 64.6489C2.28761 64.6489 1.5955 65.3691 1.5955 66.6439C1.5955 67.9186 2.1929 68.6604 3.10357 68.6604C3.34498 68.6596 3.58335 68.6071 3.80221 68.5064C4.02106 68.4057 4.21521 68.2592 4.37123 68.0771L5.19448 69.0421C4.93474 69.3463 4.60969 69.5895 4.24297 69.754C3.87624 69.9184 3.47705 70 3.07443 69.9928C1.39879 69.9928 0 68.8693 0 66.6943ZM7.19067 66.6223C7.19067 64.5193 8.39276 63.331 10.1704 63.331C11.948 63.331 13.1137 64.5265 13.1137 66.6223C13.1137 68.718 11.9407 69.9928 10.1995 69.9928C8.45832 69.9928 7.19067 68.7324 7.19067 66.6223ZM11.5619 66.6223C11.5619 65.3835 11.0301 64.6489 10.1777 64.6489C9.32528 64.6489 8.79345 65.3691 8.79345 66.6223C8.79345 67.8754 9.318 68.6604 10.1777 68.6604C11.0373 68.6604 11.5546 67.8682 11.5546 66.6223H11.5619ZM16.1007 63.439H18.483C19.8745 63.439 21.0256 63.9143 21.0256 65.4699C21.0514 65.8547 20.9578 66.238 20.7573 66.5688C20.5568 66.8995 20.259 67.1619 19.9037 67.3209L21.3607 69.8704H19.605L18.4102 67.6089H17.6816V69.8632H16.0934L16.1007 63.439ZM18.3592 66.3918C19.0877 66.3918 19.503 66.0749 19.503 65.4699C19.503 64.865 19.1023 64.6633 18.3592 64.6633H17.6306V66.3918H18.3592ZM25.1273 63.439H26.9559L29.0031 69.8632H27.3639L26.9559 68.4228H25.069L24.6901 69.8632H23.1019L25.1273 63.439ZM25.3677 67.2056H26.7009L26.5552 66.6583C26.3804 66.0245 26.2201 65.2179 26.0452 64.5985H26.0088C25.8485 65.2683 25.6737 66.0389 25.5134 66.6583L25.3677 67.2056ZM31.4364 63.439H33.0028V68.574H35.5308V69.8632H31.4291L31.4364 63.439ZM41.6359 68.1419C41.6487 67.7641 41.7654 67.3969 41.9733 67.0797C42.1812 66.7625 42.4726 66.5073 42.8162 66.3414C42.5794 65.9399 42.4444 65.4877 42.4228 65.0234C42.4213 64.7928 42.4678 64.5643 42.5594 64.3521C42.6509 64.1399 42.7855 63.9486 42.9549 63.7899C43.1243 63.6312 43.3248 63.5087 43.5441 63.4297C43.7633 63.3508 43.9966 63.3172 44.2295 63.331C44.4356 63.3053 44.6448 63.3235 44.8432 63.3843C45.0416 63.4451 45.2245 63.5471 45.3797 63.6835C45.535 63.8199 45.6589 63.9875 45.7432 64.1751C45.8276 64.3628 45.8704 64.566 45.8687 64.7714C45.8687 65.614 45.2058 66.1325 44.5282 66.5791C44.8992 66.9937 45.3117 67.3701 45.7595 67.7026C46.1019 67.2568 46.3497 66.7473 46.488 66.2045H47.9014C47.6768 66.9845 47.3088 67.7169 46.8158 68.3651C47.1672 68.5515 47.5457 68.6827 47.9378 68.7541L47.5662 70C46.9796 69.8703 46.4169 69.6516 45.8979 69.3518C45.3002 69.7775 44.58 70.0022 43.8434 69.9928C42.3645 69.9928 41.6214 69.143 41.6214 68.1419H41.6359ZM44.0328 68.8189C44.2897 68.8057 44.5396 68.7316 44.7614 68.6028C44.2893 68.2272 43.8572 67.8049 43.4719 67.3425C43.3607 67.4296 43.2689 67.5386 43.2025 67.6626C43.136 67.7865 43.0963 67.9228 43.0857 68.0627C43.1003 68.502 43.4573 68.8189 44.0183 68.8189H44.0328ZM43.9017 65.7436C44.3534 65.4843 44.6885 65.2107 44.6885 64.8074C44.6885 64.4041 44.5428 64.332 44.266 64.332C43.9891 64.332 43.6977 64.5913 43.6977 65.0522C43.7074 65.2939 43.7721 65.5302 43.8871 65.7436H43.9017ZM54.3926 63.439H56.6584C58.0062 63.439 59.0771 63.8063 59.0771 65.0378C59.0852 65.3251 59.0099 65.6086 58.8601 65.8549C58.7104 66.1013 58.4924 66.3 58.232 66.4278V66.4278C58.575 66.4998 58.8802 66.6917 59.0916 66.9681C59.3031 67.2446 59.4066 67.5872 59.3831 67.933C59.3686 69.2798 58.2393 69.8632 56.826 69.8632H54.3781L54.3926 63.439ZM56.5783 65.9957C57.2412 65.9957 57.5399 65.7076 57.5399 65.2755C57.5399 64.8434 57.2339 64.6273 56.5783 64.6273H55.9298V66.0029L56.5783 65.9957ZM56.7094 68.6892C57.4379 68.6892 57.8459 68.4156 57.8459 67.8682C57.8459 67.3209 57.4671 67.148 56.7094 67.148H55.9371V68.7108L56.7094 68.6892ZM62.1807 63.439H66.2969V64.7281H63.7471V65.9165H65.9327V67.2128H63.7471V68.574H66.3989V69.8632H62.188L62.1807 63.439ZM70.6245 63.439H72.4895L74.5149 69.8632H72.8538L72.4968 68.4228H70.5735L70.2019 69.8632H68.6137L70.6245 63.439ZM70.8649 67.2056H72.1981L72.0597 66.6583C71.8848 66.0245 71.7173 65.2179 71.5424 64.5985C71.3821 65.2683 71.2073 66.0389 71.0397 66.6583L70.8649 67.2056ZM76.7806 66.8527V63.439H78.3397V67.04C78.3397 68.2571 78.7039 68.6892 79.4179 68.6892C80.1319 68.6892 80.518 68.2571 80.518 67.04V63.439H82.0188V66.8527C82.0188 69.0133 81.1445 69.9928 79.4179 69.9928C77.6913 69.9928 76.7879 69.0133 76.7879 66.8527H76.7806ZM86.4774 64.7281H84.729V63.439H89.8287V64.7281H88.0657V69.8632H86.4993L86.4774 64.7281ZM93.486 67.6089L91.5335 63.4462H93.1946L93.7337 64.8866L94.2582 66.327H94.2946C94.4768 65.83 94.6516 65.3763 94.8338 64.8866L95.3729 63.4462H97.0048L95.0451 67.6089V69.8632H93.486V67.6089Z" fill="#23718A"/>
</svg>
