<svg width="134" height="97" viewBox="0 0 134 97" fill="none" xmlns="http://www.w3.org/2000/svg">
<g clip-path="url(#clip0_549_1220)">
<path d="M73.12 41.114C73.5031 40.7206 73.9617 40.4069 74.4691 40.1911C74.9764 39.9753 75.5222 39.8617 76.0745 39.8571C76.6268 39.8525 77.1744 39.9569 77.6854 40.1643C78.1963 40.3716 78.6603 40.6777 79.05 41.0645C80.05 42.0531 80.35 43.1108 82.05 43.8127C84.05 44.6134 85.72 46.4521 85.5 48.3798C85.4685 48.7862 85.3558 49.1824 85.1685 49.5455C84.9811 49.9086 84.7229 50.2314 84.4086 50.4953C84.0943 50.7591 83.7302 50.9587 83.3374 51.0826C82.9445 51.2065 82.5308 51.2521 82.12 51.217C81.9384 51.2085 81.7578 51.1854 81.58 51.1478C78.4469 50.4885 75.5333 49.0569 73.11 46.986C72.7182 46.6011 72.4074 46.1433 72.1957 45.639C71.984 45.1347 71.8754 44.5939 71.8763 44.0479C71.8773 43.5019 71.9877 42.9615 72.2011 42.4579C72.4146 41.9543 72.7269 41.4975 73.12 41.114ZM79.35 31.5448L81.12 32.2664C81.417 32.3919 81.737 32.4559 82.06 32.4542C82.6322 32.458 83.1878 32.2645 83.6312 31.907C84.0747 31.5495 84.3782 31.0503 84.4895 30.4955C84.6008 29.9406 84.5129 29.3648 84.2411 28.8671C83.9692 28.3693 83.5303 27.9808 83 27.7685L81.23 27.0468C80.9312 26.9248 80.6111 26.8621 80.2878 26.8624C79.9646 26.8627 79.6446 26.9259 79.346 27.0485C79.0475 27.171 78.7763 27.3505 78.5479 27.5767C78.3195 27.8028 78.1384 28.0712 78.015 28.3666C77.8916 28.6619 77.8282 28.9784 77.8285 29.2979C77.8287 29.6175 77.8927 29.9339 78.0167 30.229C78.1406 30.5241 78.3222 30.7922 78.5509 31.018C78.7797 31.2437 79.0512 31.4227 79.35 31.5448ZM101.54 20.6707C100.858 20.4596 100.132 20.4242 99.4323 20.5678C98.7323 20.7113 98.081 21.0292 97.54 21.4912C96.2661 19.4196 94.5384 17.6569 92.4841 16.3327C90.4299 15.0085 88.1013 14.1566 85.67 13.8398C80.33 12.7425 78.75 21.0661 84.1 21.9953C86.2725 22.2121 88.2948 23.1905 89.8007 24.7536C91.3067 26.3166 92.1968 28.361 92.31 30.5167C92.3185 31.8048 91.8529 33.0521 91 34.026C90.1787 34.7005 89.5568 35.5816 89.2 36.5765C88.85 37.7924 90.2 39.9376 91.05 40.7877C92.3022 41.9632 93.0923 43.5393 93.28 45.2362C94 53.5796 87.22 60.0744 75 56.6343C72.5354 55.9123 70.2408 54.7126 68.25 53.1051L67.77 52.7196L67.42 52.3934C62.1 47.6285 64.14 42.5671 66.29 39.5422C67.15 38.7217 69.61 35.5286 69.61 35.5879C75.9 27.2347 76.01 15.6093 68.76 7.99741C64.83 4.25079 59 10.4292 63 14.0474C62.92 13.9782 62.95 13.9979 62.92 13.988C63.05 14.2055 63.17 14.4329 63.28 14.6603C64.4 17.3986 62.9 18.7529 62.12 19.1285C58.9 20.7003 57.12 18.14 56.36 17.1514C55.6 16.1629 52.68 14.4428 50.66 15.55C49.689 16.0818 48.9699 16.9712 48.659 18.0247C48.3481 19.0781 48.4707 20.2103 49 21.1748C49.25 21.6296 51.76 25.5838 58.52 26.2857C58.9461 26.4013 59.3339 26.6257 59.6445 26.9363C59.9552 27.2468 60.1778 27.6327 60.29 28.0552C60.4645 29.1604 60.2491 30.2913 59.68 31.2581C59.16 32.0885 57.41 32.5135 56.26 32.7014C55.0621 32.8012 53.8579 32.8012 52.66 32.7014C47.03 31.9995 40.94 27.7586 39.81 22.1733C38.61 16.2419 43.26 6.98908 51.49 8.38294C56.83 9.47035 58.43 1.1665 53.06 0.227372C46.82 -0.761182 39.93 1.41364 36.06 6.4948L36 6.62332C35.6679 5.90268 35.1351 5.29038 34.4639 4.858C33.7928 4.42561 33.011 4.191 32.21 4.18159C31.102 4.18151 30.0387 4.61319 29.2506 5.38303C28.4625 6.15286 28.0132 7.19878 28 8.29397C28 8.89699 28.07 14.0078 31.67 17.5567C31.0313 21.9188 31.8735 26.3672 34.0647 30.2058C36.2559 34.0444 39.6725 37.0566 43.78 38.7711C43.78 38.7711 48.23 41.46 44.5 42.7253C43.6606 42.763 42.8198 42.6899 42 42.5078C41.5509 42.4158 41.112 42.2801 40.69 42.1025C40.5 42.0276 40.3162 41.9383 40.14 41.8356L40 41.7269H39.93L40 41.8257C39.672 41.3747 39.2557 40.9933 38.7758 40.7042C38.296 40.4151 37.7623 40.2241 37.2064 40.1425C36.6506 40.061 36.0838 40.0905 35.5397 40.2294C34.9956 40.3684 34.4852 40.6138 34.0388 40.9512C33.5924 41.2886 33.219 41.7112 32.9408 42.1939C32.6626 42.6765 32.4852 43.2095 32.4191 43.7611C32.353 44.3128 32.3996 44.872 32.556 45.4055C32.7125 45.9391 32.9757 46.4362 33.33 46.8673L33.49 47.0749L33.6 47.2133L33.78 47.4308C33.91 47.5791 34.01 47.678 34.13 47.7966C34.25 47.9152 34.57 48.2315 34.79 48.4391C35.2216 48.8182 35.6757 49.1715 36.15 49.4969C37.045 50.1101 37.9997 50.6334 39 51.0588C40.916 51.8148 42.9412 52.2652 45 52.3934C46.9204 52.5349 48.8505 52.4819 50.76 52.2352L51.43 52.1264C52.2303 52.1559 53.0169 52.3413 53.7445 52.6721C54.4722 53.0029 55.1265 53.4726 55.67 54.0541C72.32 77.5224 110.39 68.8824 101.48 38.9293C101.467 38.7475 101.419 38.5697 101.34 38.4053C100.48 36.3195 101.55 33.2747 101.87 32.474L101.93 32.3356V32.2565C101.93 32.2565 103.52 27.8772 104.19 25.8111C104.518 24.7766 104.424 23.6565 103.929 22.689C103.434 21.7216 102.577 20.9833 101.54 20.6311V20.6707ZM0 91.5401C0 88.5744 2 86.9235 4.25 86.9235C4.76277 86.9224 5.27052 87.0234 5.74298 87.2204C6.21544 87.4174 6.64294 87.7065 7 88.0703L5.85 89.4246C5.44049 89.0026 4.88112 88.7545 4.29 88.7326C3.14 88.7326 2.19 89.7212 2.19 91.4709C2.19 93.2206 3.01 94.2388 4.26 94.2388C4.59136 94.2378 4.91854 94.1656 5.21895 94.0274C5.51936 93.8891 5.78584 93.6881 6 93.4381L7.13 94.7628C6.77348 95.1803 6.32732 95.5141 5.82395 95.7398C5.32058 95.9656 4.77265 96.0775 4.22 96.0677C1.92 96.0677 0 94.5255 0 91.5401ZM9.87 91.4412C9.87 88.5547 11.52 86.9235 13.96 86.9235C16.4 86.9235 18 88.5645 18 91.4412C18 94.3179 16.39 96.0677 14 96.0677C11.61 96.0677 9.87 94.3377 9.87 91.4412ZM15.87 91.4412C15.87 89.7409 15.14 88.7326 13.97 88.7326C12.8 88.7326 12.07 89.7212 12.07 91.4412C12.07 93.1613 12.79 94.2388 13.97 94.2388C15.15 94.2388 15.86 93.1514 15.86 91.4412H15.87ZM22.1 87.0718H25.37C27.28 87.0718 28.86 87.7243 28.86 89.8596C28.8954 90.3876 28.7669 90.9138 28.4917 91.3678C28.2165 91.8218 27.8078 92.1819 27.32 92.4001L29.32 95.8996H26.91L25.27 92.7956H24.27V95.8897H22.09L22.1 87.0718ZM25.2 91.1249C26.2 91.1249 26.77 90.6899 26.77 89.8596C26.77 89.0292 26.22 88.7524 25.2 88.7524H24.2V91.1249H25.2ZM34.49 87.0718H37L39.81 95.8897H37.56L37 93.9126H34.41L33.89 95.8897H31.71L34.49 87.0718ZM34.82 92.242H36.65L36.45 91.4907C36.21 90.6207 35.99 89.5136 35.75 88.6634H35.7C35.48 89.5828 35.24 90.6405 35.02 91.4907L34.82 92.242ZM43.15 87.0718H45.3V94.1202H48.77V95.8897H43.14L43.15 87.0718ZM57.15 93.5271C57.1676 93.0086 57.3277 92.5045 57.6131 92.0692C57.8985 91.6338 58.2984 91.2834 58.77 91.0557C58.445 90.5046 58.2598 89.8839 58.23 89.2466C58.2281 88.93 58.2919 88.6164 58.4175 88.3252C58.5432 88.0339 58.728 87.7713 58.9604 87.5535C59.1929 87.3357 59.4682 87.1674 59.7691 87.0591C60.07 86.9507 60.3903 86.9046 60.71 86.9235C60.9928 86.8883 61.28 86.9133 61.5523 86.9967C61.8246 87.0802 62.0757 87.2202 62.2888 87.4074C62.5019 87.5947 62.672 87.8248 62.7877 88.0823C62.9035 88.3398 62.9622 88.6188 62.96 88.9007C62.96 90.0573 62.05 90.769 61.12 91.3819C61.6292 91.9511 62.1954 92.4678 62.81 92.9241C63.28 92.3122 63.6201 91.6128 63.81 90.8679H65.75C65.4417 91.9385 64.9366 92.9438 64.26 93.8335C64.7422 94.0893 65.2618 94.2694 65.8 94.3674L65.29 96.0776C64.4848 95.8995 63.7124 95.5994 63 95.1879C62.1796 95.7722 61.1911 96.0806 60.18 96.0677C58.15 96.0677 57.13 94.9012 57.13 93.5271H57.15ZM60.44 94.4563C60.7926 94.4382 61.1356 94.3365 61.44 94.1598C60.792 93.6442 60.1989 93.0645 59.67 92.4298C59.5174 92.5494 59.3915 92.6991 59.3003 92.8692C59.209 93.0393 59.1545 93.2263 59.14 93.4183C59.16 94.0214 59.65 94.4563 60.42 94.4563H60.44ZM60.26 90.2352C60.88 89.8793 61.34 89.5037 61.34 88.9501C61.34 88.3965 61.14 88.2976 60.76 88.2976C60.38 88.2976 59.98 88.6535 59.98 89.2862C59.9933 89.6178 60.0822 89.9422 60.24 90.2352H60.26ZM74.66 87.0718H77.77C79.62 87.0718 81.09 87.576 81.09 89.2664C81.1011 89.6607 80.9977 90.0499 80.7921 90.388C80.5866 90.7261 80.2874 90.999 79.93 91.1743C80.4007 91.2732 80.8197 91.5365 81.1099 91.916C81.4001 92.2955 81.5422 92.7657 81.51 93.2404C81.49 95.089 79.94 95.8897 78 95.8897H74.64L74.66 87.0718ZM77.66 90.5812C78.57 90.5812 78.98 90.1858 78.98 89.5926C78.98 88.9995 78.56 88.7029 77.66 88.7029H76.77V90.5911L77.66 90.5812ZM77.84 94.2784C78.84 94.2784 79.4 93.9027 79.4 93.1514C79.4 92.4001 78.88 92.1629 77.84 92.1629H76.78V94.308L77.84 94.2784ZM85.35 87.0718H91V88.8413H87.5V90.4725H90.5V92.2518H87.5V94.1202H91.14V95.8897H85.36L85.35 87.0718ZM96.94 87.0718H99.5L102.28 95.8897H100L99.51 93.9126H96.87L96.36 95.8897H94.18L96.94 87.0718ZM97.27 92.242H99.1L98.91 91.4907C98.67 90.6207 98.44 89.5136 98.2 88.6634C97.98 89.5828 97.74 90.6405 97.51 91.4907L97.27 92.242ZM105.39 91.7576V87.0718H107.53V92.0146C107.53 93.6853 108.03 94.2784 109.01 94.2784C109.99 94.2784 110.52 93.6853 110.52 92.0146V87.0718H112.58V91.7576C112.58 94.7232 111.38 96.0677 109.01 96.0677C106.64 96.0677 105.4 94.7232 105.4 91.7576H105.39ZM118.7 88.8413H116.3V87.0718H123.3V88.8413H120.88V95.8897H118.73L118.7 88.8413ZM128.32 92.7956L125.64 87.0817H127.92L128.66 89.0588L129.38 91.0359H129.43C129.68 90.3538 129.92 89.731 130.17 89.0588L130.91 87.0817H133.15L130.46 92.7956V95.8897H128.32V92.7956Z" fill="#23718A"/>
</g>
<defs>
<clipPath id="clip0_549_1220">
<rect width="133.16" height="96.0677" fill="white"/>
</clipPath>
</defs>
</svg>
