<svg width="50" height="45" viewBox="0 0 50 45" fill="none" xmlns="http://www.w3.org/2000/svg">
<path d="M29.5356 27.0078C29.7864 26.7495 30.0866 26.5434 30.4187 26.4017C30.7508 26.2599 31.1081 26.1853 31.4696 26.1823C31.8311 26.1793 32.1896 26.2479 32.5241 26.3841C32.8585 26.5202 33.1622 26.7213 33.4174 26.9754C34.072 27.6247 34.2683 28.3194 35.3812 28.7804C36.6904 29.3064 37.7836 30.5141 37.6395 31.7802C37.6189 32.0471 37.5452 32.3074 37.4225 32.5458C37.2999 32.7843 37.1308 32.9964 36.9251 33.1696C36.7193 33.3429 36.481 33.474 36.2239 33.5554C35.9667 33.6368 35.6959 33.6668 35.427 33.6437C35.3081 33.6381 35.1899 33.6229 35.0735 33.5982C33.0226 33.1652 31.1153 32.2249 29.529 30.8647C29.2726 30.6119 29.0691 30.3112 28.9305 29.98C28.7919 29.6487 28.7209 29.2935 28.7215 28.9349C28.7221 28.5763 28.7943 28.2213 28.9341 27.8906C29.0738 27.5598 29.2783 27.2598 29.5356 27.0078ZM33.6137 20.7226L34.7724 21.1966C34.9668 21.2791 35.1763 21.3211 35.3877 21.32C35.7623 21.3225 36.126 21.1954 36.4162 20.9605C36.7065 20.7257 36.9052 20.3979 36.978 20.0334C37.0509 19.669 36.9934 19.2908 36.8154 18.9639C36.6375 18.6369 36.3502 18.3818 36.003 18.2423L34.8444 17.7683C34.6488 17.6882 34.4393 17.647 34.2277 17.6472C34.0161 17.6474 33.8066 17.6889 33.6111 17.7694C33.4157 17.8499 33.2382 17.9678 33.0887 18.1163C32.9392 18.2648 32.8207 18.4411 32.7399 18.6351C32.659 18.8291 32.6176 19.037 32.6177 19.2469C32.6179 19.4568 32.6598 19.6646 32.7409 19.8584C32.8221 20.0522 32.9409 20.2283 33.0907 20.3766C33.2404 20.5249 33.4182 20.6425 33.6137 20.7226ZM48.1393 13.5803C47.6927 13.4417 47.2178 13.4184 46.7596 13.5127C46.3014 13.6071 45.8751 13.8158 45.5209 14.1193C44.687 12.7586 43.5561 11.6008 42.2113 10.7311C40.8666 9.86134 39.3424 9.30181 37.7508 9.09368C34.2553 8.37296 33.221 13.8401 36.7231 14.4504C38.1452 14.5927 39.469 15.2354 40.4548 16.2621C41.4406 17.2887 42.0233 18.6315 42.0974 20.0474C42.103 20.8934 41.7982 21.7127 41.2398 22.3524C40.7022 22.7954 40.2951 23.3741 40.0616 24.0276C39.8324 24.8262 40.7162 26.2352 41.2726 26.7936C42.0922 27.5656 42.6095 28.6009 42.7323 29.7154C43.2036 35.1955 38.7655 39.4614 30.7662 37.2018C29.1529 36.7276 27.6509 35.9397 26.3477 34.8838L26.0335 34.6306L25.8044 34.4163C22.3219 31.2867 23.6573 27.9623 25.0647 25.9755C25.6276 25.4365 27.2379 23.3393 27.2379 23.3783C31.3554 17.8917 31.4274 10.2559 26.6815 5.25632C24.1089 2.79548 20.2926 6.8536 22.911 9.23003C22.8587 9.18458 22.8783 9.19757 22.8587 9.19107C22.9438 9.33392 23.0223 9.48326 23.0943 9.6326C23.8275 11.4312 22.8456 12.3207 22.335 12.5674C20.2272 13.5998 19.062 11.9181 18.5645 11.2688C18.067 10.6195 16.1555 9.48975 14.8333 10.217C14.1977 10.5663 13.7269 11.1505 13.5234 11.8424C13.3199 12.5343 13.4001 13.2779 13.7466 13.9115C13.9103 14.2102 15.5533 16.8074 19.9784 17.2684C20.2573 17.3443 20.5112 17.4917 20.7145 17.6957C20.9179 17.8997 21.0636 18.1531 21.1371 18.4306C21.2513 19.1565 21.1103 19.8993 20.7377 20.5343C20.3974 21.0797 19.2518 21.3589 18.499 21.4823C17.7149 21.5479 16.9266 21.5479 16.1425 21.4823C12.4571 21.0213 8.47053 18.2358 7.73083 14.5673C6.94531 10.6715 9.98921 4.59404 15.3766 5.50955C18.8721 6.22378 19.9195 0.769664 16.4043 0.15283C12.3196 -0.496469 7.80939 0.931989 5.27608 4.26939L5.23681 4.35379C5.01938 3.88047 4.67062 3.4783 4.2313 3.1943C3.79197 2.91031 3.28022 2.75621 2.75587 2.75003C2.0306 2.74998 1.33455 3.03351 0.818657 3.53915C0.302762 4.04479 0.00861361 4.73177 0 5.45111C0 5.84718 0.0458222 9.20406 2.40238 11.535C1.98431 14.4002 2.53559 17.3219 3.96996 19.8432C5.40433 22.3644 7.64085 24.3429 10.3296 25.469C10.3296 25.469 13.2426 27.2351 10.8009 28.0662C10.2514 28.091 9.70108 28.0429 9.16441 27.9234C8.8704 27.8629 8.58315 27.7738 8.30688 27.6571C8.18253 27.6079 8.06217 27.5493 7.94685 27.4818L7.85521 27.4104H7.80939L7.85521 27.4753C7.64047 27.1791 7.36797 26.9286 7.05386 26.7387C6.73975 26.5488 6.39042 26.4233 6.02655 26.3698C5.66268 26.3162 5.29167 26.3356 4.9355 26.4269C4.57933 26.5181 4.24524 26.6793 3.95302 26.9009C3.6608 27.1226 3.41639 27.4001 3.23426 27.7171C3.05214 28.0342 2.936 28.3842 2.89273 28.7465C2.84947 29.1089 2.87995 29.4762 2.98237 29.8266C3.0848 30.1771 3.25708 30.5036 3.48902 30.7868L3.59376 30.9231L3.66576 31.014L3.78359 31.1569C3.86869 31.2543 3.93415 31.3192 4.0127 31.3971C4.09125 31.475 4.30073 31.6828 4.44474 31.8191C4.72724 32.0681 5.02453 32.3001 5.335 32.5139C5.92085 32.9167 6.54583 33.2603 7.20061 33.5398C8.45479 34.0363 9.78049 34.3322 11.1282 34.4163C12.3853 34.5093 13.6487 34.4745 14.8987 34.3125L15.3373 34.241C15.8612 34.2604 16.3761 34.3822 16.8524 34.5994C17.3287 34.8167 17.757 35.1252 18.1128 35.5072C29.0119 50.9215 53.9326 45.2467 48.1001 25.5729C48.0915 25.4535 48.0604 25.3368 48.0084 25.2288C47.4455 23.8587 48.1459 21.8589 48.3554 21.333L48.3946 21.2421V21.1901C48.3946 21.1901 49.4354 18.3137 49.874 16.9567C50.0886 16.2772 50.0274 15.5415 49.7034 14.906C49.3794 14.2706 48.8183 13.7857 48.1393 13.5544V13.5803Z" fill="#23718A"/>
</svg>
