<svg width="77" height="69" viewBox="0 0 77 69" fill="none" xmlns="http://www.w3.org/2000/svg">
<path d="M45.12 42.1144C45.5031 41.7211 45.9617 41.4073 46.4691 41.1915C46.9764 40.9757 47.5222 40.8621 48.0745 40.8575C48.6268 40.8529 49.1744 40.9574 49.6854 41.1647C50.1963 41.372 50.6603 41.6781 51.05 42.065C52.05 43.0535 52.35 44.1113 54.05 44.8131C56.05 45.6139 57.72 47.4526 57.5 49.3803C57.4685 49.7867 57.3558 50.1829 57.1685 50.546C56.9811 50.9091 56.7229 51.2319 56.4086 51.4957C56.0943 51.7595 55.7302 51.9591 55.3374 52.083C54.9445 52.2069 54.5308 52.2526 54.12 52.2174C53.9384 52.209 53.7578 52.1858 53.58 52.1482C50.4469 51.4889 47.5333 50.0573 45.11 47.9864C44.7182 47.6015 44.4074 47.1437 44.1957 46.6394C43.984 46.1351 43.8754 45.5943 43.8763 45.0483C43.8773 44.5023 43.9877 43.9619 44.2011 43.4583C44.4146 42.9547 44.7269 42.4979 45.12 42.1144ZM51.35 32.5452L53.12 33.2668C53.417 33.3924 53.737 33.4563 54.06 33.4547C54.6322 33.4584 55.1878 33.2649 55.6312 32.9074C56.0747 32.5499 56.3781 32.0508 56.4895 31.4959C56.6008 30.9411 56.5129 30.3652 56.2411 29.8675C55.9692 29.3698 55.5303 28.9813 55 28.7689L53.23 28.0473C52.9312 27.9252 52.6111 27.8626 52.2878 27.8629C51.9646 27.8631 51.6446 27.9264 51.346 28.0489C51.0475 28.1714 50.7763 28.3509 50.5479 28.5771C50.3195 28.8032 50.1384 29.0716 50.015 29.367C49.8916 29.6623 49.8282 29.9788 49.8285 30.2984C49.8287 30.6179 49.8927 30.9343 50.0167 31.2294C50.1406 31.5245 50.3222 31.7926 50.5509 32.0184C50.7797 32.2442 51.0512 32.4232 51.35 32.5452ZM73.54 21.6711C72.8577 21.46 72.1323 21.4246 71.4323 21.5682C70.7323 21.7118 70.081 22.0296 69.54 22.4916C68.2661 20.42 66.5384 18.6573 64.4841 17.3331C62.4299 16.0089 60.1013 15.1571 57.67 14.8402C52.33 13.7429 50.75 22.0665 56.1 22.9958C58.2725 23.2125 60.2948 24.1909 61.8007 25.754C63.3067 27.317 64.1968 29.3614 64.31 31.5171C64.3185 32.8053 63.8529 34.0525 63 35.0265C62.1787 35.7009 61.5568 36.5821 61.2 37.5769C60.85 38.7928 62.2 40.938 63.05 41.7882C64.3022 42.9636 65.0923 44.5398 65.28 46.2367C66 54.58 59.22 61.0748 47 57.6347C44.5354 56.9127 42.2408 55.713 40.25 54.1055L39.77 53.72L39.42 53.3938C34.1 48.629 36.14 43.5676 38.29 40.5426C39.15 39.7221 41.61 36.5291 41.61 36.5884C47.9 28.2351 48.01 16.6097 40.76 8.99783C36.83 5.25121 31 11.4297 35 15.0478C34.92 14.9786 34.95 14.9984 34.92 14.9885C35.05 15.206 35.17 15.4333 35.28 15.6607C36.4 18.399 34.9 19.7533 34.12 20.129C30.9 21.7008 29.12 19.1404 28.36 18.1518C27.6 17.1633 24.68 15.4432 22.66 16.5504C21.6891 17.0822 20.9699 17.9717 20.659 19.0251C20.3481 20.0785 20.4707 21.2107 21 22.1753C21.25 22.63 23.76 26.5842 30.52 27.2861C30.9461 27.4017 31.3339 27.6261 31.6445 27.9367C31.9552 28.2473 32.1778 28.6331 32.29 29.0556C32.4645 30.1608 32.2491 31.2917 31.68 32.2585C31.16 33.0889 29.41 33.514 28.26 33.7018C27.0621 33.8017 25.8579 33.8017 24.66 33.7018C19.03 32.9999 12.94 28.759 11.81 23.1737C10.61 17.2424 15.26 7.98951 23.49 9.38337C28.83 10.4708 30.43 2.16693 25.06 1.2278C18.82 0.239246 11.93 2.41406 8.06 7.49523L8 7.62374C7.66785 6.9031 7.13507 6.29081 6.46394 5.85843C5.7928 5.42604 5.01103 5.19143 4.21 5.18201C3.10205 5.18194 2.03873 5.61362 1.25062 6.38345C0.462513 7.15329 0.0131586 8.19921 0 9.2944C0 9.89742 0.0700002 15.0082 3.67 18.5571C3.03133 22.9193 3.87349 27.3676 6.0647 31.2062C8.25591 35.0448 11.6725 38.057 15.78 39.7715C15.78 39.7715 20.23 42.4604 16.5 43.7257C15.6606 43.7634 14.8198 43.6903 14 43.5082C13.5509 43.4163 13.112 43.2805 12.69 43.1029C12.5 43.028 12.3162 42.9388 12.14 42.836L12 42.7273H11.93L12 42.8261C11.6719 42.3751 11.2557 41.9937 10.7758 41.7046C10.296 41.4155 9.76231 41.2245 9.20645 41.1429C8.65058 41.0614 8.08381 41.091 7.53971 41.2299C6.99561 41.3688 6.48524 41.6142 6.03883 41.9516C5.59241 42.2891 5.21904 42.7116 4.94081 43.1943C4.66259 43.6769 4.48518 44.2099 4.41908 44.7616C4.35299 45.3132 4.39955 45.8724 4.55602 46.4059C4.71249 46.9395 4.97568 47.4366 5.33 47.8678L5.49 48.0754L5.6 48.2138L5.78 48.4312C5.91 48.5795 6.01 48.6784 6.13 48.797C6.25 48.9156 6.57 49.232 6.79 49.4396C7.22157 49.8187 7.67571 50.1719 8.15 50.4973C9.04498 51.1105 9.99973 51.6338 11 52.0592C12.916 52.8152 14.9412 53.2656 17 53.3938C18.9204 53.5353 20.8505 53.4823 22.76 53.2356L23.43 53.1269C24.2303 53.1563 25.0169 53.3417 25.7445 53.6725C26.4722 54.0033 27.1265 54.473 27.67 55.0546C44.32 78.5228 82.39 69.8829 73.48 39.9297C73.467 39.7479 73.4195 39.5702 73.34 39.4057C72.48 37.3199 73.55 34.2752 73.87 33.4744L73.93 33.336V33.2569C73.93 33.2569 75.52 28.8777 76.19 26.8116C76.5178 25.777 76.4243 24.6569 75.9293 23.6895C75.4344 22.722 74.5772 21.9837 73.54 21.6316V21.6711Z" fill="#23718A"/>
</svg>
