<svg width="521" height="371" viewBox="0 0 521 371" fill="none" xmlns="http://www.w3.org/2000/svg">
<g clip-path="url(#clip0_267_9219)">
<g opacity="0.39">
<path opacity="0.39" d="M521 0H0V371H521V0Z" fill="#92C7C2"/>
</g>
<path d="M394.714 185.406L521 189.365V169.569L395.289 165.609L369.419 165.075V120.879H377.461L473.867 123.353L473.144 167.282L477.105 167.351L477.819 123.462L520.951 124.571V122.591V120.611L477.828 119.513L478.433 82.6017L520.931 83.0472V81.0675V79.0878L478.472 78.6424L479.809 0H477.828H475.848L474.58 78.5929L426.526 78.0881C424.545 77.9495 422.475 77.8406 420.415 77.7317C414.451 77.5766 408.508 76.9644 402.637 75.9005L455.812 0H450.979L398.488 74.8612C394.693 73.7683 391.128 71.994 387.969 69.625L365.685 52.4612L353.89 45.2157L387.851 0H382.899L350.275 43.4142L337.112 42.2462L318.018 41.5137V0H314.056V41.3652L271.706 39.7617L272.697 0.23756L262.793 0H252.889L248.927 162.531L213.402 161.779L214.768 41.8403V43.7111H250.66V39.7518H214.748L215.204 0H210.252L209.796 39.7419L139.983 37.3663V0H136.022V37.198L112.183 36.0696H101.377L101.873 0H99.6442H97.4158L96.9107 36.0696H76.34L0 34.1295V38.0888L76.2608 40.0685H96.8611L96.2669 82.9482C96.2669 83.5718 96.2669 84.1657 96.2669 84.72C96.2907 85.1849 96.2907 85.6507 96.2669 86.1156C96.0692 86.1333 95.8703 86.1333 95.6727 86.1156L59.6716 85.3238L0 84.0172V88.4714L59.6419 89.7978L95.6429 90.5897H95.9302L93.4145 113.079L91.7408 113.019C90.2552 112.97 88.2645 113.089 85.9568 113.227C79.6876 113.593 69.2092 114.217 67.1392 110.664C65.8659 107.976 65.1902 105.045 65.1584 102.072C65.0891 99.4388 65.1089 96.7465 65.1584 94.1531C65.1584 92.8168 65.1584 91.4904 65.1584 90.1938H61.1968C61.1968 91.5201 61.1968 92.8366 61.1968 94.1531C61.1968 96.796 61.1968 99.5279 61.1968 102.22C61.2662 105.309 61.9594 109.664 63.6629 112.663C66.9015 118.364 77.5285 117.731 86.1054 117.226C88.314 117.097 90.2255 116.979 91.5328 117.028L93.1075 117.088V159.294L47.1331 158.304C47.1331 157.77 47.1331 157.176 47.1331 156.532C47.2421 150.989 47.4006 142.615 42.1811 139.379C40.9134 138.597 39.0713 138.745 37.4371 138.874C37.0722 138.917 36.7052 138.94 36.3378 138.943H33.6835C31.3065 138.943 28.9296 138.874 26.5526 138.874C25.9485 138.874 25.3047 138.874 24.6213 138.775C21.7888 138.587 17.9163 138.31 16.3317 142.19C15.1036 145.159 14.8758 150.297 14.6678 154.8C14.6183 155.79 14.5688 156.78 14.5193 157.661L0 157.285V177.18L94.712 179.16V189.058C94.712 189.603 94.712 190.147 94.712 190.702C94.8573 192.301 94.7369 193.913 94.3554 195.473C92.7114 200.64 88.928 202.639 84.1345 205.163C83.4115 205.539 82.6885 205.925 81.9556 206.331L72.3983 211.557L70.6353 212.547C68.4388 213.867 66.1404 215.009 63.762 215.962C61.9234 216.474 60.0097 216.661 58.1068 216.516C57.1164 216.516 56.126 216.516 55.1356 216.516L0 219.892V223.772L50.4015 220.802C50.3024 225.811 49.7082 230.701 46.7073 233.75C45.5974 234.744 44.3818 235.613 43.0824 236.343C42.3792 236.769 41.6562 237.214 41.0026 237.669L5.25902 262.494H0V266.454H4.76382L21.0064 292.991C19.0208 293.322 17.0049 293.435 14.9947 293.328C14.3509 293.328 13.7071 293.328 13.0139 293.328H0V297.287H13.0535H14.9253C15.5295 297.287 16.1435 297.287 16.7576 297.287C18.9205 297.344 21.0799 297.081 23.1655 296.505L38.0215 320.776L39.1703 338.524H0V342.483H41.2799L105.21 343.918V371.01H109.172V343.997L114.015 344.106L203.557 346.848L202.903 370.931L205.369 371H207.855L208.499 346.997L243.807 348.085L243.183 370.733L253.087 371H262.991L264.338 322.152H308.549L307.499 370.96H309.48H311.461L312.511 322.162L431.101 324.715V370.96H435.063V324.834L520.951 326.735V324.755V322.775L435.013 320.875L390.099 319.885L391.406 235.036L394.714 185.406ZM43.2607 156.394C43.2607 157.037 43.2607 157.621 43.2607 158.166L18.5898 157.641C18.6393 156.77 18.6889 155.84 18.7285 154.879C18.9166 150.92 19.1444 145.971 20.1051 143.585C20.5409 142.536 21.5214 142.427 24.453 142.596C25.176 142.655 25.899 142.675 26.6616 142.704C29.0088 142.704 31.3759 142.705 33.7231 142.774H36.3972C36.8231 142.774 37.3084 142.774 37.8729 142.695C38.6697 142.612 39.4729 142.612 40.2697 142.695C43.4786 144.862 43.3498 152.088 43.2607 156.394ZM200.061 43.3746L209.787 43.7012L209.539 65.4776L192.435 64.953C192.264 63.8815 192.033 62.8206 191.741 61.7756C191.335 60.1622 190.246 55.8366 190.969 55.0645C191.385 54.9655 191.85 54.8863 192.336 54.7973C194.148 54.4706 196.396 54.0747 197.813 52.6196C200.061 50.343 200.061 46.453 200.061 43.3746ZM209.519 67.477L209.262 89.8077H193.98C193.564 89.8077 193.059 89.8077 192.534 89.9067C191.877 89.9875 191.215 90.0239 190.553 90.0156C190.206 89.3227 190.444 86.9669 190.553 85.9375C190.603 85.3931 190.662 84.8882 190.682 84.4527C190.88 81.117 191.256 77.7218 191.672 74.4356C191.949 71.9907 192.217 69.4864 192.425 66.9524L209.519 67.477ZM100.129 88.6199C100.746 87.3411 100.967 85.9072 100.763 84.5022C100.763 84.037 100.763 83.5124 100.763 83.0076L101.358 40.0289H112.133L137.973 41.2563L196.099 43.236C196.099 45.5423 196.099 48.6801 194.98 49.8778C194.445 50.4222 192.831 50.7092 191.642 50.8676C191.068 50.9666 190.523 51.0656 190.038 51.1844C189.517 51.3041 189.025 51.528 188.593 51.8427C188.16 52.1575 187.796 52.5564 187.522 53.0156C186.057 55.4407 187.037 59.3109 187.899 62.7258C188.191 63.6961 188.4 64.6896 188.523 65.6953C188.315 68.4372 188.008 71.2285 187.711 73.9407C187.334 77.2764 186.948 80.721 186.72 84.1558C186.72 84.5517 186.651 84.9971 186.601 85.4722C186.314 88.3428 185.918 92.2625 188.85 93.5691C189.479 93.8174 190.153 93.9353 190.83 93.9155C191.444 93.9155 192.128 93.8561 192.88 93.7869C193.296 93.7869 193.673 93.7077 193.95 93.7077H209.153L208.915 116.801L122.81 114.158C117.055 113.979 111.212 113.752 105.557 113.534L97.8813 113.247L100.635 88.6793L100.129 88.6199ZM72.6062 215.992L74.3295 215.002L83.8869 209.845C84.6 209.449 85.3131 209.073 86.0063 208.707C91.1168 205.955 96.0688 203.391 98.1586 196.68C98.694 194.698 98.8783 192.638 98.7033 190.593C98.7033 190.078 98.7033 189.603 98.7033 189.058V179.259L154.74 180.427V202.144C154.74 202.807 154.819 203.629 154.899 204.5C155.017 205.727 155.255 208.261 154.899 208.934C154.542 209.607 152.68 210.637 151.759 211.171C151.165 211.498 150.61 211.815 150.164 212.161L87.9971 254.437L66.2974 219.209C68.4592 218.256 70.5655 217.182 72.6062 215.992V215.992ZM8.54715 265.028L43.2607 240.916C43.8252 240.53 44.469 240.134 45.1523 239.718C46.7286 238.847 48.195 237.79 49.52 236.571C53.5807 232.453 54.2739 226.534 54.3631 220.605L55.3535 220.535C56.2151 220.535 57.1164 220.535 58.0672 220.535C59.4852 220.584 60.9049 220.535 62.316 220.387L75.0921 241.173L31.6136 265.899L32.604 267.622L76.1816 242.757L84.6495 256.506L33.0001 286.359C31.7324 287.092 30.4845 287.933 29.2663 288.745C27.8005 289.735 26.2951 290.724 24.7699 291.536L8.54715 265.028ZM26.8398 294.971C28.4542 294.09 29.9794 293.07 31.4749 292.08C32.6832 291.269 33.8321 290.507 34.9809 289.834L86.6996 259.931L91.8299 268.245L33.3369 305.532L26.8398 294.971ZM40.6064 317.46L34.8522 308.066L93.3551 270.73L100.06 281.618L40.6064 317.46ZM108.994 318.658C108.538 319.36 108.102 320.024 107.696 320.568C105.171 323.973 105.171 327.319 105.18 330.872V339.949L43.1418 338.524L42.0326 321.221L102.17 284.964L117.907 310.511L114.025 312.887C111.915 314.184 110.39 316.559 109.023 318.658H108.994ZM203.626 342.889L114.084 340.147L109.132 340.038V330.862C109.132 327.625 109.132 325.28 110.865 322.944C111.341 322.3 111.856 321.587 112.301 320.825C113.44 319.083 114.728 317.103 116.045 316.302L138.339 302.711L143.043 303.612C146.658 304.305 150.392 305.037 154.096 305.661C157.413 306.197 160.769 306.452 164.129 306.423C168.507 306.423 172.894 306.077 177.202 305.74C180.391 305.493 183.69 305.235 186.869 305.127L204.646 304.552L203.626 342.889ZM204.765 300.573L186.75 301.157C183.482 301.266 180.134 301.533 176.846 301.781C169.487 302.365 161.881 302.969 154.72 301.781C151.066 301.157 147.352 300.435 143.757 299.742L143.331 299.663L172.864 281.658C179.074 277.876 183.333 276.649 190.385 276.639H205.359L204.765 300.573ZM205.518 272.64H190.454C182.66 272.64 177.727 274.065 170.884 278.243L121.294 308.472L105.567 282.944L166.635 246.132L167.843 245.39C172.716 242.42 178.232 239.075 183.749 239.451L206.409 240.797L205.518 272.64ZM206.508 236.798L184.016 235.462C177.252 235.056 171.141 238.758 165.793 242.015L103.487 279.579L90.1264 257.803L152.442 215.398C152.759 215.18 153.255 214.903 153.77 214.606C155.602 213.557 157.672 212.379 158.504 210.647C159.336 208.915 159.078 206.381 158.87 204.104C158.791 203.322 158.722 202.59 158.722 202.124V180.506L208.043 181.496L206.508 236.798ZM208.41 161.68L97.6337 159.363V117.196L105.398 117.484C111.063 117.711 116.917 117.939 122.691 118.107L208.856 120.76L208.41 161.68ZM243.916 344.126L208.608 343.047L210.391 276.599H245.778L243.916 344.126ZM245.897 272.65H210.5L212.936 181.635L248.363 182.367L245.897 272.65ZM426.298 82.0474L474.511 82.5522L473.916 119.394L398.646 117.414L426.179 81.988L426.298 82.0474ZM351.503 48.393L363.388 55.6683L385.592 72.7529C395.496 80.3944 408.639 81.0873 420.207 81.6614L423.772 81.8593L396.16 117.404L377.491 116.919H369.419V116.642L324.158 84.7794L351.503 48.393ZM294.406 44.5426L314.056 45.2849V50.2341C308.876 51.6199 303.716 51.6595 298.279 51.6793C296.972 51.6793 295.654 51.6793 294.317 51.6793L294.406 44.5426ZM308.638 318.153H264.437L266.794 232.69L310.441 234.195L308.638 318.153ZM310.54 230.236L266.913 228.731L268.181 182.743L311.55 183.644L310.54 230.236ZM268.686 162.927L271.607 43.7012L290.425 44.4139L290.336 51.7882H283.948V55.7475H294.288C295.634 55.7475 296.972 55.7475 298.299 55.7475C304.152 55.7475 310.183 55.6881 316.304 53.8272H326.119V49.8679H318.018V45.5126L336.835 46.2253L347.512 47.2151L300.19 110.089L303.36 112.475L321.781 87.9468L365.458 118.701V164.986L268.686 162.927ZM387.534 234.828L386.226 319.806L312.64 318.222L314.452 234.324L387.534 234.799V234.828ZM387.801 230.869L314.511 230.394L315.502 183.773L390.772 185.337L387.801 230.869Z" fill="white"/>
<path d="M145.876 128.49L144.073 157.631L208.053 159.126V128.975L145.876 128.49Z" fill="#022E41"/>
<path d="M269.131 87.3828C270.626 87.9793 271.976 88.887 273.093 90.0454C274.153 88.7441 274.917 87.2274 275.331 85.6011C275.609 85.8858 275.918 86.1382 276.252 86.3533C275.799 88.0263 274.981 89.578 273.856 90.8967C274.899 92.3248 275.647 93.9469 276.054 95.6677C275.705 95.8512 275.373 96.0666 275.064 96.3111C274.736 94.642 274.062 93.0604 273.083 91.6688C271.886 92.7735 270.478 93.6253 268.943 94.173L268.894 95.9448H267.903L268.042 90.9957C267.461 91.1715 266.903 91.414 266.378 91.7183L266.091 90.5799C266.62 90.2533 267.181 89.9814 267.765 89.7683L268.042 90.8076L268.19 85.6308H269.181L269.131 87.3828ZM268.973 93.0446C270.235 92.5404 271.385 91.7938 272.36 90.8472C271.434 89.864 270.306 89.0939 269.052 88.5904L268.973 93.0446Z" fill="#92C7C2"/>
<path d="M268.398 81.1664C267.92 81.6884 267.523 82.279 267.22 82.9184L266.517 82.3047C266.806 81.6615 267.179 81.0592 267.626 80.5131L268.398 81.1664ZM275.004 79.7806H275.807V80.7111L271.37 80.5923V79.355L269.547 79.2956L269.498 80.9091H268.587V79.2956H266.715V78.3058H268.587V76.8804H269.508V78.3157H271.33V77.1477L274.925 77.2467L275.004 79.7806ZM275.519 73.3566C275.965 73.3566 276.223 73.4754 276.361 73.7921C276.514 74.285 276.558 74.805 276.49 75.3165C276.193 75.3737 275.906 75.4737 275.638 75.6134C275.638 75.1284 275.638 74.6731 275.638 74.5246C275.638 74.3761 275.589 74.3168 275.44 74.3069L272.677 74.2376L273.598 75.3462L272.786 75.7124C274.182 75.7705 275.519 76.297 276.579 77.2071C276.378 77.4505 276.196 77.7086 276.034 77.9791C274.777 76.7122 272.865 76.5439 271.33 76.5043L266.972 76.3855L267.061 73.0894L275.519 73.3566ZM267.883 75.5046H269.666L269.409 75.0987C269.731 74.7405 270.082 74.4094 270.458 74.1089L267.923 74.0396L267.883 75.5046ZM271.201 81.6514C270.751 82.202 270.378 82.8114 270.092 83.4628L269.379 82.8689C269.633 82.2043 269.983 81.5806 270.419 81.0179L271.201 81.6514ZM271.33 75.6035C271.766 75.6035 272.241 75.6035 272.726 75.6926C272.509 75.2967 272.152 74.7622 271.736 74.2079H270.795L271.092 74.6137C270.662 74.9083 270.257 75.2395 269.884 75.6035H271.33ZM272.32 79.7114H274.162V78.187L272.36 78.1969L272.32 79.7114ZM275.757 83.4232C274.657 82.8075 273.523 82.2556 272.36 81.7702L272.915 80.9289C274.044 81.3743 275.331 81.9187 276.322 82.4631L275.757 83.4232Z" fill="#92C7C2"/>
<path d="M273.479 67.6257L272.925 67.7148C272.952 68.6624 273.095 69.6031 273.35 70.516C273.142 70.5754 272.657 70.7239 272.36 70.8229C272.213 70.4718 271.978 70.1648 271.677 69.932C271.508 69.7736 271.132 69.447 270.686 69.0708C270.706 69.5643 270.773 70.0547 270.884 70.5358C270.581 70.6153 270.283 70.7145 269.993 70.8327C269.993 70.6249 269.726 70.4269 269.419 70.1894C268.597 69.6035 267.709 69.1152 266.774 68.7343L267.19 67.7445C268.135 68.2291 269.033 68.799 269.874 69.447L269.825 68.4572C269.371 68.13 268.894 67.8355 268.398 67.5762L268.963 66.6754C270.147 67.415 271.252 68.2741 272.261 69.2391L272.132 67.883C271.797 67.9564 271.466 68.049 271.142 68.1602L270.973 67.3584C271.717 67.1014 272.483 66.9126 273.261 66.7942L273.479 67.6257ZM272.934 60.4296C273.35 60.9641 273.796 61.5382 274.113 62.0331C274.811 61.6055 275.388 61.0056 275.787 60.291C276.01 60.5665 276.27 60.8097 276.559 61.0136C275.997 61.8237 275.232 62.4722 274.341 62.8943H275.896C276.381 62.8943 276.648 63.023 276.787 63.3595C276.933 63.8741 276.976 64.412 276.916 64.9432C276.574 64.9834 276.241 65.0735 275.925 65.2105C275.945 64.8445 275.945 64.4777 275.925 64.1118C275.925 63.9633 275.925 63.9237 275.777 63.9237L271.815 63.8148L271.746 66.0519L267.883 65.943L267.933 64.2306C267.56 64.0723 267.176 63.94 266.784 63.8346L267.052 62.627C267.359 62.8052 267.685 62.9735 267.963 63.1516L268.032 60.6177L271.895 60.7265L271.835 62.7854H272.36C272.731 62.6779 273.092 62.5388 273.44 62.3697C273.088 61.9449 272.711 61.5416 272.311 61.1621L272.934 60.4296ZM269.597 65.0224L269.686 61.7461H268.913L268.824 65.0224H269.597ZM271.112 65.0224L271.201 61.756H270.419L270.379 65.0422L271.112 65.0224ZM272.905 64.0326C273.627 64.1987 274.305 64.5169 274.894 64.9658C275.483 65.4147 275.97 65.984 276.322 66.6359C276.061 66.8052 275.822 67.0045 275.609 67.2298C275.16 66.3494 274.422 65.6502 273.519 65.2501V66.5171H272.687L272.736 64.8443V64.676L272.905 64.0326ZM273.529 67.3881C274.066 67.1826 274.619 67.0204 275.183 66.9031L275.41 67.6653C274.837 67.7641 274.274 67.9131 273.727 68.1107L273.529 67.3881ZM273.915 69.5361C274.832 69.6503 275.735 69.8593 276.609 70.1597C276.484 70.4179 276.382 70.6861 276.302 70.9614C275.482 70.6578 274.627 70.4615 273.757 70.3774L273.915 69.5361ZM273.796 68.4373C274.56 68.3154 275.331 68.2427 276.104 68.2196L276.223 69.051C275.448 69.0575 274.674 69.1104 273.905 69.2094L273.796 68.4373Z" fill="#92C7C2"/>
<path d="M247.709 298.584C248.734 299.356 249.612 300.304 250.304 301.385C250.004 301.542 249.716 301.72 249.442 301.919C248.894 301.013 248.17 300.225 247.313 299.603L247.709 298.584ZM254.067 292.269C254.824 292.714 255.452 293.349 255.89 294.11C256.2 293.279 256.429 292.421 256.573 291.546C256.838 291.803 257.134 292.025 257.454 292.209C257.253 293.237 256.921 294.235 256.464 295.179C256.914 296.292 257.213 297.461 257.355 298.653C257.049 298.774 256.76 298.934 256.494 299.128C256.404 298.136 256.205 297.157 255.9 296.208C255.65 296.585 255.372 296.943 255.068 297.277C255.294 297.589 255.493 297.921 255.662 298.267C255.418 298.482 255.192 298.717 254.988 298.97C254.826 298.597 254.637 298.237 254.424 297.891C254.159 298.116 253.877 298.321 253.582 298.505L253.324 297.713C253.523 297.564 253.74 297.416 253.929 297.247C253.687 296.937 253.408 296.657 253.097 296.416V297.525L250.195 297.445C250.363 297.604 250.512 297.762 250.66 297.93C250.484 298.121 250.325 298.326 250.185 298.544C250.609 298.816 251.016 299.113 251.403 299.435L257.345 299.593V300.682L252.691 300.553C253.047 300.895 253.378 301.262 253.681 301.652C253.338 301.801 253.007 301.977 252.691 302.177C251.939 301.086 250.98 300.154 249.868 299.435L250.175 298.702C249.475 297.864 248.576 297.214 247.56 296.812L247.808 295.822C248.085 295.931 248.343 296.06 248.61 296.188L248.739 291.506H249.551L249.412 296.663C249.612 296.798 249.803 296.944 249.987 297.099L250.125 292.209L253.394 292.298L253.315 295.268C253.493 295.396 253.691 295.535 253.869 295.683L253.939 293.05V292.882L254.067 292.269ZM251.096 296.515L251.185 293.278H250.601L250.512 296.515H251.096ZM252.374 296.515L252.463 293.278H251.849L251.76 296.525L252.374 296.515ZM254.513 296.515C254.874 296.068 255.18 295.58 255.424 295.06C255.175 294.557 254.839 294.102 254.434 293.714L254.364 296.386L254.513 296.515Z" fill="#92C7C2"/>
<path d="M254.374 278.955H255.305L255.018 289.299H254.087V288.428H248.353C248.194 287.753 247.986 287.092 247.729 286.448L248.59 286.062C248.736 286.55 248.855 287.046 248.947 287.547H250.116V286.389H250.938V287.527H252.096V286.389H252.909V287.507H254.087V286.141L248.145 285.983L248.254 281.934L254.196 282.103V280.727C253.849 280.727 253.443 280.658 253.037 280.638V281.776H252.225V280.588L251.057 280.519V281.667H250.244V280.509H248.996V281.746H248.155L248.214 279.569C250.126 279.648 252.582 279.796 254.255 279.945L254.374 278.955ZM254.196 285.369L254.265 282.905L249.066 282.766L248.996 285.231L254.196 285.369ZM249.719 283.093H250.383L250.334 284.944H249.67L249.719 283.093ZM250.967 284.864V283.182L253.443 283.251V284.934L250.967 284.864ZM252.839 284.439V283.736H251.601V284.439H252.839ZM255.87 285.211C256.541 286.331 257.108 287.511 257.563 288.735C257.292 288.914 257.034 289.112 256.791 289.329C256.398 288.184 255.862 287.093 255.196 286.082L255.87 285.211ZM255.216 282.528C255.743 281.407 256.338 280.32 256.999 279.272L257.742 279.984C257.05 280.991 256.437 282.05 255.909 283.152L255.216 282.528Z" fill="#92C7C2"/>
<path d="M255.177 271.799L256.088 271.64C256.702 273.293 257.336 275.085 257.801 276.421L256.761 276.877C256.533 276.065 256.187 274.897 255.771 273.699L251.651 273.58L251.581 276.372H250.591L250.67 273.58L248.214 273.511V272.412L255.414 272.61L255.177 271.799ZM256.781 268.047C256.781 267.582 256.276 267.493 254.265 267.374C254.493 267.078 254.664 266.742 254.771 266.384C257.019 266.553 257.801 266.83 257.742 268.018V269.482C257.742 270.591 257.326 270.908 256.048 270.868L248.293 270.66V269.542L250.74 269.611L250.829 266.513H251.819L251.73 269.611L256.048 269.73C256.603 269.73 256.702 269.671 256.712 269.275L256.781 268.047Z" fill="#92C7C2"/>
<path d="M249.848 254.051C250.917 254.414 251.893 255.005 252.711 255.783C253.367 255.065 253.876 254.224 254.206 253.309C254.452 253.568 254.728 253.797 255.028 253.992L254.939 254.219L258.475 254.308V255.298H258.128L258.059 257.872H258.435V258.862L254.87 258.763C254.939 258.931 255.018 259.099 255.078 259.277C254.917 259.354 254.764 259.446 254.622 259.554V259.554V260.901L256.345 260.95L256.068 259.505L256.959 259.426C257.296 261.019 257.633 262.702 257.871 263.949L256.88 264.108C256.88 263.929 256.821 263.751 256.791 263.553L253.127 263.454V262.573L256.623 262.672L256.484 261.91L252.235 261.791V263.395L248.818 263.296L248.927 259.495L251.71 259.574C250.847 258.622 249.757 257.904 248.541 257.486L248.818 256.496L249.64 256.862L249.7 254.882V254.694L249.848 254.051ZM251.294 262.474L251.344 260.594H249.67L249.621 262.474H251.294ZM250.393 257.317L250.581 257.426C251.094 257.154 251.573 256.822 252.007 256.436C251.541 256.006 251.013 255.646 250.443 255.367L250.393 257.317ZM254.137 259.574C253.796 258.666 253.292 257.828 252.651 257.1C252.253 257.432 251.826 257.727 251.374 257.981C251.728 258.256 252.059 258.561 252.364 258.891C252.143 259.118 251.938 259.359 251.75 259.614H252.235V260.861H253.671V259.515L254.137 259.574ZM254.573 254.912C254.236 255.476 253.834 255.997 253.374 256.466C253.802 256.965 254.174 257.51 254.483 258.089L254.573 254.912ZM257.227 255.308L255.424 255.259L255.345 257.822H257.157L257.227 255.308Z" fill="#92C7C2"/>
<path d="M385.345 172.231V173.221L389.257 173.33L389.098 179.269C389.098 179.813 388.92 180.051 388.514 180.19C387.862 180.317 387.195 180.351 386.533 180.289C386.446 179.98 386.327 179.681 386.177 179.398C386.83 179.457 387.534 179.457 387.722 179.457C387.91 179.457 387.999 179.457 387.999 179.239L388.138 174.29L381.304 174.013L381.136 180.091H380.066L380.254 173.073L384.216 173.182V172.192L379.749 172.063V171.073L384.206 171.192V170.202H385.384V171.192L389.821 171.311V172.301L385.345 172.231ZM385.048 178.279V180.011H384.057V178.279L381.74 178.22V177.388L384.057 177.458V176.468L381.987 176.408V175.617H383.136C382.989 175.172 382.789 174.747 382.542 174.35L383.394 174.132C383.674 174.517 383.897 174.94 384.057 175.389L383.245 175.626L385.107 175.676C385.418 175.209 385.687 174.716 385.909 174.201L386.82 174.478C386.563 174.924 386.286 175.359 386.038 175.706H387.256V176.497L385.077 176.438V177.428L387.484 177.497V178.319L385.048 178.279Z" fill="#92C7C2"/>
<path d="M395.17 177.755C394.493 178.65 393.704 179.455 392.823 180.15C392.593 179.906 392.341 179.683 392.07 179.487C392.868 178.899 393.564 178.183 394.13 177.369L395.17 177.755ZM402.439 172.004V172.994L392.436 172.717V171.727L397.022 171.855C396.844 171.499 396.636 171.093 396.437 170.767L397.487 170.479C397.791 170.926 398.059 171.396 398.29 171.885L402.439 172.004ZM397.903 176.844L397.834 179.467C397.834 180.022 397.685 180.289 397.24 180.457C396.554 180.585 395.854 180.615 395.16 180.546C395.089 180.206 394.983 179.874 394.843 179.556C395.526 179.556 396.239 179.616 396.447 179.616C396.655 179.616 396.705 179.616 396.705 179.438L396.774 176.834L393.664 176.745L393.754 173.508L401.122 173.706L401.033 176.953L397.903 176.844ZM394.754 175.854L399.924 176.003V174.508L394.754 174.37V175.854ZM400.171 177.488C400.892 178.209 401.554 178.987 402.152 179.814L401.162 180.368C400.573 179.513 399.91 178.712 399.181 177.973L400.171 177.488Z" fill="#92C7C2"/>
<path d="M411.333 177.685C412.455 178.737 413.784 179.543 415.235 180.051C414.931 180.294 414.661 180.577 414.433 180.892C412.937 180.252 411.589 179.312 410.471 178.131L410.402 180.912H409.283L409.352 178.17C408.193 179.268 406.821 180.117 405.321 180.665C405.114 180.351 404.875 180.059 404.608 179.794C406.064 179.355 407.412 178.621 408.57 177.636L405.975 177.566L406.084 173.538L409.511 173.637V172.835L405.113 172.716V171.726L409.521 171.855V170.865H410.64V171.855L415.146 171.974V172.964L410.64 172.835V173.637L414.235 173.736L414.126 177.764L411.333 177.685ZM407.015 176.794L409.392 176.854V175.973L407.025 175.913L407.015 176.794ZM407.054 175.201L409.431 175.27V174.399L407.054 174.33V175.201ZM412.997 176.092L410.481 176.022V176.913L412.997 176.982V176.092ZM410.531 174.429V175.3L413.046 175.369V174.498L410.531 174.429Z" fill="#92C7C2"/>
<path d="M427.368 172.706C426.999 173.769 426.412 174.744 425.644 175.567C426.365 176.216 427.201 176.723 428.11 177.061C427.849 177.303 427.623 177.579 427.437 177.883L427.209 177.784L427.11 181.328H426.12V180.981L423.555 180.902V181.288H422.564L422.663 177.734L422.148 177.932C422.079 177.804 421.97 177.636 421.861 177.477H420.514L420.464 179.19L421.901 178.912L421.98 179.813C420.385 180.15 418.711 180.486 417.454 180.724L417.295 179.734L417.85 179.655L417.959 175.982H418.83L418.731 179.477L419.504 179.328L419.623 175.082H418.018L418.107 171.667L421.91 171.766L421.841 174.557C422.787 173.69 423.501 172.602 423.921 171.39L424.911 171.657C424.802 171.934 424.674 172.221 424.545 172.488L426.526 172.538H426.704L427.368 172.706ZM418.939 174.151L420.821 174.201L420.871 172.528L418.989 172.469L418.939 174.151ZM421.841 176.982C422.748 176.643 423.587 176.144 424.317 175.507C423.989 175.106 423.694 174.679 423.436 174.23C423.16 174.585 422.855 174.916 422.524 175.22C422.298 174.996 422.057 174.788 421.802 174.597V175.092H420.554V176.527H421.901L421.841 176.982ZM426.516 177.418C425.949 177.081 425.424 176.679 424.951 176.22C424.456 176.654 423.911 177.026 423.327 177.329L426.516 177.418ZM426.12 180.08L426.169 178.269L423.594 178.2L423.545 180.001L426.12 180.08ZM424.139 173.241L424.03 173.439C424.306 173.946 424.638 174.421 425.02 174.854C425.445 174.387 425.805 173.864 426.09 173.3L424.139 173.241Z" fill="#92C7C2"/>
<path d="M440.213 180.001V180.991L430.309 180.714V179.724L440.213 180.001ZM439.797 172.776V173.765L431.151 173.528V172.538L439.797 172.776ZM438.807 176.25V177.24L431.805 177.042V176.052L438.807 176.25Z" fill="#92C7C2"/>
<path d="M447.245 179.517L444.561 179.853L444.511 181.674H443.472L443.521 180.012L442.739 180.111L442.61 179.121L443.541 179.022L443.709 172.855C444.753 172.615 445.774 172.284 446.76 171.865L447.582 172.657C446.642 173.006 445.679 173.291 444.7 173.508V174.498L447.156 174.567V175.448L444.7 175.379V176.696L447.136 176.765V177.656L444.69 177.586V178.952C445.522 178.873 446.423 178.784 447.334 178.675L447.245 179.517ZM452.613 177.181C452.311 178.324 451.709 179.366 450.87 180.2C451.584 180.706 452.392 181.066 453.247 181.259C452.979 181.507 452.746 181.79 452.553 182.1C451.655 181.843 450.816 181.408 450.087 180.823C449.219 181.382 448.261 181.787 447.255 182.021C447.135 181.693 446.953 181.39 446.72 181.13C447.649 180.968 448.54 180.632 449.345 180.14C448.764 179.471 448.308 178.703 447.998 177.874L448.572 177.745H447.582V176.884L451.692 177.002H451.89L452.613 177.181ZM449.483 173.786C449.506 174.376 449.372 174.963 449.093 175.485C448.815 176.006 448.402 176.445 447.899 176.755C447.682 176.506 447.44 176.28 447.176 176.082C447.597 175.853 447.945 175.509 448.178 175.091C448.412 174.672 448.521 174.195 448.493 173.716V172.41L451.87 172.499L451.801 175.142C451.801 175.439 451.801 175.538 451.969 175.538H452.643C452.827 175.562 453.013 175.562 453.197 175.538C453.182 175.805 453.182 176.072 453.197 176.339C452.991 176.372 452.78 176.372 452.573 176.339H451.821C450.919 176.339 450.751 175.963 450.781 175.122L450.83 173.36H449.424L449.483 173.786ZM448.899 177.745C449.178 178.417 449.585 179.029 450.097 179.546C450.623 179.059 451.039 178.465 451.315 177.804L448.899 177.745Z" fill="#92C7C2"/>
<path d="M15.6482 179.694C15.9651 180.11 16.8169 181.367 17.0051 181.674L16.3613 182.367C16.2127 182.011 15.9057 181.377 15.6185 180.882L15.4798 186.089H14.4894L14.6182 181.466C14.2871 182.415 13.8272 183.315 13.2514 184.139C13.1193 183.792 12.95 183.46 12.7463 183.149C13.6174 182 14.2473 180.687 14.5984 179.289H13.0633V178.348L14.6677 178.398L14.737 176.19H15.7274L15.6581 178.408H17.0645V179.338H15.6581L15.6482 179.694ZM21.7194 182.298C22.2542 183.377 22.9177 184.822 23.2149 185.663L22.2245 186.079C22.1353 185.802 22.0066 185.475 21.8778 185.089C18.1242 185.465 17.629 185.525 17.2626 185.673C17.1853 185.335 17.0793 185.004 16.9456 184.683C17.2031 184.624 17.4111 184.307 17.7082 183.792C18.4366 182.48 19.021 181.093 19.4513 179.655L20.521 179.962C19.9755 181.524 19.2789 183.029 18.4411 184.456L21.5114 184.208C21.2737 183.654 21.0261 183.08 20.7983 182.575L21.7194 182.298ZM19.59 176.755C19.3009 178.414 18.6555 179.991 17.6983 181.377C17.4899 181.091 17.2581 180.823 17.0051 180.575C17.823 179.366 18.361 177.99 18.5798 176.547L19.59 176.755ZM21.7392 176.557C21.96 178.055 22.5188 179.483 23.3733 180.734C23.0721 180.953 22.7993 181.209 22.5612 181.496C21.753 180.242 21.1947 178.844 20.9171 177.378H19.9267V176.527L21.7392 176.557Z" fill="#92C7C2"/>
<path d="M35.5257 178.883L35.3078 186.594H34.2085V185.812L26.2061 185.584L26.3942 178.655H27.5035L27.345 184.515L30.1974 184.594L30.4252 176.557H31.5542L31.3264 184.584L34.2382 184.663L34.3967 178.774L35.5257 178.883Z" fill="#92C7C2"/>
<path d="M40.1111 183.713C39.7985 184.479 39.3891 185.2 38.8929 185.861C38.6607 185.684 38.4194 185.519 38.1699 185.367C38.6468 184.794 39.022 184.145 39.2792 183.446L40.1111 183.713ZM41.6264 183.04L41.5175 186.732H40.4776L40.5865 183.04L38.368 182.981V182.12L40.6063 182.13V181.14L38.3284 181.081V180.229H39.5862C39.522 179.757 39.3989 179.295 39.2197 178.853L40.1012 178.675C40.2755 179.11 40.4049 179.561 40.4875 180.021L39.6258 180.229L41.4481 180.279C41.6912 179.773 41.8964 179.251 42.0622 178.715L43.0526 178.942C42.8446 179.418 42.6366 179.932 42.4286 180.308H43.7756V181.15L41.6561 181.09V182.08L43.6369 182.14V183.001L41.6264 183.04ZM43.6765 178.804L38.6255 178.665V177.824L40.7351 177.883C40.6162 177.576 40.4776 177.23 40.3488 176.953L41.4184 176.715C41.5967 177.091 41.8146 177.557 41.9632 177.923L43.6964 177.972L43.6765 178.804ZM42.6861 183.456C43.0488 183.976 43.3543 184.534 43.5973 185.119L42.8347 185.515C42.5958 184.919 42.3041 184.346 41.9632 183.803L42.6861 183.456ZM48.8068 181.556H47.6381L47.5391 186.911H46.4893L46.6378 181.526H45.281V181.783C45.2315 183.357 45.0235 185.525 43.9638 186.881C43.7256 186.638 43.4557 186.428 43.1615 186.257C43.9743 184.904 44.364 183.339 44.2807 181.764L44.3797 177.992C45.588 177.851 46.7791 177.589 47.9353 177.21L48.7573 177.972C47.6467 178.304 46.5104 178.542 45.3602 178.685V180.586L48.9356 180.685L48.8068 181.556Z" fill="#92C7C2"/>
<path d="M61.4544 178.626V179.615L53.1153 179.378L53.036 181.14C53.036 182.852 52.7389 185.426 51.6396 187.079C51.3588 186.837 51.0495 186.631 50.7185 186.465C51.7089 184.941 51.8773 182.694 51.9268 181.12L51.9961 178.348L56.4034 178.477C56.2762 178.112 56.1136 177.761 55.9181 177.428L56.9778 177.23C57.2419 177.627 57.4549 178.056 57.6117 178.507L61.4544 178.626ZM57.4928 180.991L61.1078 181.09V182.011L57.4829 181.912V183.159L60.5631 183.248L60.4541 187.208H59.3548V186.802L54.8782 186.683V187.109H53.8284L53.9373 183.149L56.3836 183.209L56.4727 179.873H57.582L57.4928 180.991ZM59.3845 184.159L54.9079 184.03V185.703L59.3944 185.832L59.3845 184.159Z" fill="#92C7C2"/>
<path d="M64.8712 184.594C64.7558 185.507 64.5468 186.406 64.2473 187.277C63.987 187.157 63.719 187.054 63.4451 186.97C63.7453 186.15 63.9416 185.295 64.0294 184.426L64.8712 184.594ZM66.852 184.159C66.852 183.99 66.8521 183.792 66.7629 183.594C65.816 183.635 64.8762 183.778 63.9601 184.02C63.9007 183.812 63.7521 183.327 63.6432 183.03C64.0012 182.891 64.3133 182.654 64.5444 182.347C64.7029 182.179 65.0297 181.813 65.4061 181.357C64.9124 181.378 64.4216 181.444 63.9403 181.555C63.8592 181.253 63.76 180.955 63.6432 180.665C63.8511 180.665 64.0492 180.407 64.2869 180.1C64.8686 179.276 65.3569 178.39 65.7428 177.458L66.7332 177.863C66.246 178.809 65.676 179.71 65.0297 180.556L66.0201 180.506C66.3453 180.051 66.6398 179.575 66.9016 179.081L67.8028 179.635C67.0653 180.82 66.2056 181.925 65.2377 182.931L66.5945 182.803C66.5215 182.468 66.4289 182.137 66.3172 181.813L67.1195 181.635C67.3814 182.38 67.5705 183.149 67.684 183.931L66.852 184.159ZM66.0201 184.466C66.1421 185.229 66.2149 185.999 66.238 186.772L65.416 186.891C65.4011 186.116 65.3449 185.343 65.2476 184.574L66.0201 184.466ZM67.0105 184.208C67.219 184.742 67.3846 185.291 67.5057 185.851L66.7431 186.079C66.643 185.51 66.4939 184.95 66.2974 184.406L67.0105 184.208ZM70.3779 183.575C70.2164 184.297 69.9021 184.976 69.4563 185.567C69.0104 186.157 68.4433 186.646 67.7929 187C67.6202 186.742 67.421 186.503 67.1987 186.287C68.0836 185.844 68.7847 185.105 69.1795 184.198H67.9118V183.377L69.5856 183.426H69.7539L70.3779 183.575ZM74.0027 183.575C73.4679 183.981 72.8935 184.426 72.3983 184.753C72.8292 185.445 73.4289 186.018 74.1414 186.416C73.8633 186.639 73.6197 186.903 73.4184 187.197C72.6121 186.631 71.9643 185.868 71.5366 184.98V186.534C71.5366 187.009 71.4079 187.277 71.0712 187.425C70.5545 187.561 70.0176 187.601 69.4865 187.544C69.4442 187.221 69.3506 186.907 69.2092 186.613C69.6945 186.613 70.1996 186.613 70.3184 186.613C70.4373 186.613 70.5066 186.613 70.5066 186.455L70.6156 182.496L68.3376 182.555L68.4466 178.685H70.1501C70.3143 178.316 70.45 177.936 70.5561 177.547L71.7644 177.804C71.5862 178.111 71.4178 178.437 71.2395 178.715L73.7749 178.784L73.666 182.654L71.606 182.595V182.971C71.7162 183.341 71.8553 183.702 72.0219 184.05C72.447 183.698 72.8505 183.321 73.2302 182.921L74.0027 183.575ZM69.328 181.783L72.5964 181.872V181.09L69.3181 181.001L69.328 181.783ZM69.328 180.269L72.6063 180.368V179.586L69.328 179.497V180.269Z" fill="#92C7C2"/>
<path d="M127.762 107.259C127.721 106.704 127.798 106.147 127.987 105.624C128.176 105.101 128.473 104.624 128.859 104.223C129.245 103.823 129.711 103.508 130.226 103.299C130.742 103.09 131.296 102.993 131.852 103.012C132.825 103.015 133.759 103.394 134.457 104.071L133.387 105.309C132.982 104.917 132.445 104.691 131.882 104.675C130.782 104.675 129.901 105.665 129.901 107.199C129.901 108.733 130.683 109.743 131.882 109.743C132.191 109.739 132.496 109.671 132.777 109.544C133.058 109.416 133.31 109.231 133.516 109.001L134.605 110.218C134.252 110.608 133.819 110.917 133.335 111.124C132.851 111.331 132.329 111.43 131.803 111.416C131.254 111.445 130.706 111.356 130.195 111.155C129.683 110.955 129.221 110.647 128.838 110.254C128.456 109.86 128.162 109.389 127.976 108.872C127.79 108.356 127.717 107.806 127.762 107.259V107.259Z" fill="#FB7369"/>
<path d="M136.091 107.17C136.091 104.517 137.685 103.012 140.052 103.012C142.419 103.012 144.014 104.527 144.014 107.17C144.014 109.812 142.429 111.416 140.052 111.416C137.675 111.416 136.091 109.872 136.091 107.17ZM141.855 107.17C141.855 105.606 141.152 104.675 140.023 104.675C138.894 104.675 138.2 105.606 138.2 107.17C138.2 108.733 138.894 109.743 140.023 109.743C141.152 109.743 141.855 108.743 141.855 107.17Z" fill="#FB7369"/>
<path d="M146.698 103.151H149.847C151.68 103.151 153.205 103.755 153.205 105.715C153.232 106.209 153.104 106.699 152.84 107.118C152.575 107.536 152.187 107.862 151.729 108.051L153.641 111.268H151.333L149.758 108.417H148.768V111.268H146.708L146.698 103.151ZM149.669 106.883C150.66 106.883 151.185 106.477 151.185 105.715C151.185 104.952 150.65 104.725 149.669 104.725H148.748V106.902L149.669 106.883Z" fill="#FB7369"/>
<path d="M157.474 103.151H159.94L162.604 111.268H160.445L159.95 109.407H157.414L156.919 111.268H154.8L157.474 103.151ZM157.8 107.902H159.553L159.365 107.219C159.138 106.407 158.92 105.437 158.682 104.616C158.474 105.467 158.236 106.407 158.018 107.219L157.8 107.902Z" fill="#FB7369"/>
<path d="M164.644 103.151H166.714V109.634H170.052V111.268H164.644V103.151Z" fill="#FB7369"/>
<path d="M176.479 103.151H179.451C181.223 103.151 182.65 103.616 182.65 105.131C182.655 105.5 182.551 105.863 182.353 106.174C182.154 106.485 181.868 106.732 181.53 106.883C181.971 106.965 182.366 107.204 182.645 107.555C182.923 107.906 183.065 108.346 183.046 108.793C183.046 110.446 181.56 111.188 179.688 111.188H176.45L176.479 103.151ZM179.401 106.378C180.273 106.378 180.669 106.021 180.669 105.467C180.669 104.913 180.263 104.646 179.401 104.646H178.549V106.378H179.401ZM179.569 109.773C180.56 109.773 181.075 109.436 181.075 108.783C181.075 108.13 180.58 107.793 179.569 107.793H178.579V109.773H179.569Z" fill="#FB7369"/>
<path d="M185.65 103.151H191.088V104.774H187.71V106.279H190.583V107.892H187.71V109.614H191.216V111.248H185.65V103.151Z" fill="#FB7369"/>
<path d="M195.644 103.151H198.08L200.744 111.268H198.575L198.08 109.407H195.545L195.049 111.268H192.95L195.644 103.151ZM195.961 107.902H197.714L197.535 107.219C197.298 106.407 197.08 105.437 196.852 104.616C196.644 105.467 196.416 106.407 196.198 107.219L195.961 107.902Z" fill="#FB7369"/>
<path d="M202.626 107.457V103.151H204.676V107.665C204.676 109.199 205.161 109.743 206.112 109.743C207.063 109.743 207.558 109.199 207.558 107.665V103.151H209.539V107.457C209.539 110.189 208.38 111.416 206.102 111.416C203.824 111.416 202.626 110.189 202.626 107.457Z" fill="#FB7369"/>
<path d="M214.283 104.774H211.946V103.151H218.651V104.774H216.323V111.268H214.263L214.283 104.774Z" fill="#FB7369"/>
<path d="M222.385 108.407L219.8 103.151H221.988L222.701 104.962C222.939 105.576 223.157 106.14 223.395 106.774H223.444C223.682 106.14 223.92 105.576 224.157 104.962L224.87 103.151H227.029L224.435 108.407V111.268H222.385V108.407Z" fill="#FB7369"/>
<path d="M179.302 128.579C180.396 128.579 181.283 127.693 181.283 126.6C181.283 125.506 180.396 124.62 179.302 124.62C178.208 124.62 177.321 125.506 177.321 126.6C177.321 127.693 178.208 128.579 179.302 128.579Z" fill="white"/>
<path d="M179.262 118.681C178.205 118.681 177.158 118.892 176.184 119.302C175.209 119.713 174.327 120.314 173.589 121.07C172.85 121.826 172.271 122.723 171.884 123.707C171.498 124.69 171.313 125.741 171.339 126.798C171.339 130.097 173.98 133.991 179.262 138.478C184.544 133.971 187.186 130.077 187.186 126.798C187.212 125.741 187.027 124.69 186.64 123.707C186.254 122.723 185.675 121.826 184.936 121.07C184.198 120.314 183.315 119.713 182.341 119.302C181.366 118.892 180.32 118.681 179.262 118.681ZM179.262 128.579C178.871 128.579 178.488 128.463 178.162 128.246C177.836 128.028 177.582 127.719 177.432 127.357C177.282 126.996 177.243 126.598 177.32 126.214C177.396 125.83 177.585 125.477 177.862 125.2C178.139 124.923 178.492 124.735 178.876 124.658C179.26 124.582 179.658 124.621 180.02 124.771C180.382 124.921 180.692 125.174 180.909 125.5C181.127 125.826 181.243 126.208 181.243 126.6C181.243 127.125 181.034 127.628 180.663 128C180.292 128.371 179.788 128.579 179.262 128.579Z" fill="#FB7369"/>
<path d="M90.8295 261.247C89.7721 261.247 88.7254 261.458 87.751 261.868C86.7765 262.278 85.8941 262.88 85.1557 263.636C84.4173 264.392 83.8379 265.289 83.4516 266.273C83.0653 267.256 82.8799 268.307 82.9063 269.364C82.9063 272.663 85.5474 276.557 90.8295 281.044C96.1116 276.543 98.7527 272.65 98.7527 269.364C98.7791 268.307 98.5937 267.256 98.2074 266.273C97.8211 265.289 97.2416 264.392 96.5033 263.636C95.7649 262.88 94.8825 262.278 93.908 261.868C92.9336 261.458 91.8869 261.247 90.8295 261.247Z" fill="#92C7C2"/>
<path d="M88.6506 265.751H91.5426C93.5234 265.751 94.9793 266.444 94.9793 268.523C94.9793 270.601 93.4739 271.433 91.5822 271.433H90.4135V274.551H88.6506V265.751ZM91.4634 270.037C92.6816 270.037 93.256 269.532 93.256 268.523C93.256 267.513 92.6221 267.157 91.4039 267.157H90.4135V270.037H91.4634Z" fill="white"/>
<path d="M301.785 220.664C300.727 220.664 299.681 220.875 298.706 221.285C297.732 221.695 296.849 222.297 296.111 223.053C295.373 223.809 294.793 224.706 294.407 225.69C294.021 226.673 293.835 227.724 293.862 228.781C293.862 232.08 296.503 235.974 301.785 240.461C307.067 235.954 309.708 232.06 309.708 228.781C309.734 227.724 309.549 226.673 309.163 225.69C308.776 224.706 308.197 223.809 307.459 223.053C306.72 222.297 305.838 221.695 304.863 221.285C303.889 220.875 302.842 220.664 301.785 220.664V220.664Z" fill="#92C7C2"/>
<path d="M299.606 225.167H302.498C304.479 225.167 305.935 225.86 305.935 227.939C305.935 230.018 304.429 230.849 302.538 230.849H301.369V233.967H299.606V225.167ZM302.419 229.453C303.637 229.453 304.211 228.949 304.211 227.939C304.211 226.929 303.577 226.573 302.359 226.573H301.369V229.453H302.419Z" fill="white"/>
<path d="M253.453 198.431L253.381 201.4L254.371 201.424L254.444 198.455L253.453 198.431Z" fill="#92C7C2"/>
<path d="M253.752 186.551L253.679 189.52L254.669 189.544L254.742 186.575L253.752 186.551Z" fill="#92C7C2"/>
<path d="M255.028 174.696L255.523 174.716L260.049 0H258.069L253.542 174.666L254.533 174.686L254.038 174.676L253.968 177.646L254.959 177.665L255.028 174.696Z" fill="#92C7C2"/>
<path d="M253.895 180.625L253.823 183.594L254.813 183.618L254.885 180.649L253.895 180.625Z" fill="#92C7C2"/>
<path d="M253.608 192.486L253.535 195.455L254.525 195.479L254.598 192.511L253.608 192.486Z" fill="#92C7C2"/>
<path d="M253.309 204.367L253.237 207.336L254.227 207.36L254.3 204.392L253.309 204.367Z" fill="#92C7C2"/>
<path d="M253.136 210.275L253.061 213.243L254.051 213.268L254.126 210.3L253.136 210.275Z" fill="#92C7C2"/>
<path d="M252.992 216.216L252.917 219.184L253.907 219.209L253.982 216.241L252.992 216.216Z" fill="#92C7C2"/>
<path d="M249.336 361.527L249.261 364.496L250.251 364.521L250.326 361.552L249.336 361.527Z" fill="#92C7C2"/>
<path d="M249.625 349.655L249.55 352.624L250.54 352.649L250.615 349.68L249.625 349.655Z" fill="#92C7C2"/>
<path d="M249.176 367.462L249.113 369.965L250.103 369.99L250.167 367.487L249.176 367.462Z" fill="#92C7C2"/>
<path d="M208.22 170.78L208.212 171.77L211.183 171.792L211.191 170.802L208.22 170.78Z" fill="#92C7C2"/>
<path d="M249.481 355.586L249.406 358.555L250.396 358.58L250.471 355.611L249.481 355.586Z" fill="#92C7C2"/>
<path d="M252.405 239.959L252.33 242.927L253.32 242.952L253.395 239.984L252.405 239.959Z" fill="#92C7C2"/>
<path d="M252.693 228.097L252.618 231.065L253.608 231.09L253.683 228.122L252.693 228.097Z" fill="#92C7C2"/>
<path d="M252.549 234.028L252.474 236.996L253.464 237.021L253.539 234.053L252.549 234.028Z" fill="#92C7C2"/>
<path d="M252.868 222.174L252.795 225.143L253.785 225.167L253.858 222.198L252.868 222.174Z" fill="#92C7C2"/>
<path d="M119.081 170.119L119.073 171.108L122.044 171.132L122.052 170.142L119.081 170.119Z" fill="#92C7C2"/>
<path d="M136.909 170.259L136.901 171.249L139.872 171.272L139.88 170.282L136.909 170.259Z" fill="#92C7C2"/>
<path d="M130.969 170.209L130.962 171.199L133.933 171.222L133.941 170.232L130.969 170.209Z" fill="#92C7C2"/>
<path d="M142.849 170.299L142.841 171.289L145.812 171.312L145.82 170.323L142.849 170.299Z" fill="#92C7C2"/>
<path d="M148.798 170.339L148.79 171.329L151.761 171.352L151.769 170.363L148.798 170.339Z" fill="#92C7C2"/>
<path d="M154.733 170.389L154.725 171.379L157.696 171.401L157.704 170.411L154.733 170.389Z" fill="#92C7C2"/>
<path d="M113.141 170.079L113.133 171.068L116.104 171.092L116.112 170.102L113.141 170.079Z" fill="#92C7C2"/>
<path d="M0 167.262L107.171 169.529L107.211 167.549L0 165.283V167.262Z" fill="#92C7C2"/>
<path d="M125.03 170.169L125.022 171.159L127.993 171.182L128.001 170.192L125.03 170.169Z" fill="#92C7C2"/>
<path d="M249.779 343.715L249.704 346.683L250.694 346.708L250.769 343.74L249.779 343.715Z" fill="#92C7C2"/>
<path d="M166.627 170.479L166.619 171.469L169.59 171.493L169.598 170.503L166.627 170.479Z" fill="#92C7C2"/>
<path d="M190.395 170.65L190.387 171.64L193.358 171.663L193.366 170.673L190.395 170.65Z" fill="#92C7C2"/>
<path d="M184.455 170.61L184.447 171.6L187.418 171.623L187.426 170.633L184.455 170.61Z" fill="#92C7C2"/>
<path d="M196.344 170.7L196.336 171.689L199.308 171.713L199.315 170.723L196.344 170.7Z" fill="#92C7C2"/>
<path d="M202.272 170.74L202.265 171.729L205.236 171.752L205.243 170.762L202.272 170.74Z" fill="#92C7C2"/>
<path d="M178.506 170.569L178.498 171.559L181.469 171.582L181.477 170.593L178.506 170.569Z" fill="#92C7C2"/>
<path d="M160.687 170.429L160.679 171.419L163.65 171.442L163.658 170.452L160.687 170.429Z" fill="#92C7C2"/>
<path d="M107.201 171.014L110.162 171.033V170.044L107.191 170.024V170.519L0 168.252V170.232L107.171 172.498L107.201 171.014Z" fill="#92C7C2"/>
<path d="M172.566 170.519L172.558 171.509L175.529 171.533L175.537 170.543L172.566 170.519Z" fill="#92C7C2"/>
<path d="M250.222 325.903L250.147 328.871L251.137 328.896L251.212 325.928L250.222 325.903Z" fill="#92C7C2"/>
<path d="M456.492 175.712L456.449 176.701L459.418 176.828L459.46 175.839L456.492 175.712Z" fill="#92C7C2"/>
<path d="M361.571 172.683L361.528 173.672L364.497 173.799L364.539 172.81L361.571 172.683Z" fill="#92C7C2"/>
<path d="M302.206 170.133L302.163 171.122L305.132 171.25L305.174 170.261L302.206 170.133Z" fill="#92C7C2"/>
<path d="M462.432 175.966L462.389 176.955L465.358 177.082L465.4 176.093L462.432 175.966Z" fill="#92C7C2"/>
<path d="M367.511 172.927L367.468 173.916L370.436 174.043L370.479 173.055L367.511 172.927Z" fill="#92C7C2"/>
<path d="M468.381 176.22L468.338 177.209L471.307 177.336L471.349 176.348L468.381 176.22Z" fill="#92C7C2"/>
<path d="M314.08 170.639L314.038 171.628L317.007 171.755L317.049 170.766L314.08 170.639Z" fill="#92C7C2"/>
<path d="M373.45 173.191L373.407 174.18L376.376 174.307L376.418 173.318L373.45 173.191Z" fill="#92C7C2"/>
<path d="M308.145 170.388L308.103 171.376L311.071 171.504L311.114 170.515L308.145 170.388Z" fill="#92C7C2"/>
<path d="M503.998 177.743L503.956 178.732L506.924 178.86L506.967 177.871L503.998 177.743Z" fill="#92C7C2"/>
<path d="M509.928 178.008L509.885 178.997L512.853 179.124L512.896 178.135L509.928 178.008Z" fill="#92C7C2"/>
<path d="M498.058 177.499L498.016 178.488L500.984 178.616L501.027 177.627L498.058 177.499Z" fill="#92C7C2"/>
<path d="M515.858 178.256L515.815 179.245L518.784 179.372L518.826 178.383L515.858 178.256Z" fill="#92C7C2"/>
<path d="M492.119 177.235L492.077 178.224L495.045 178.352L495.088 177.363L492.119 177.235Z" fill="#92C7C2"/>
<path d="M480.25 176.727L480.208 177.716L483.176 177.844L483.219 176.855L480.25 176.727Z" fill="#92C7C2"/>
<path d="M474.301 176.473L474.258 177.462L477.227 177.59L477.269 176.601L474.301 176.473Z" fill="#92C7C2"/>
<path d="M249.934 337.784L249.858 340.752L250.848 340.777L250.924 337.809L249.934 337.784Z" fill="#92C7C2"/>
<path d="M486.189 176.992L486.147 177.98L489.115 178.108L489.158 177.119L486.189 176.992Z" fill="#92C7C2"/>
<path d="M214.163 170.83L214.155 171.82L217.126 171.843L217.134 170.853L214.163 170.83Z" fill="#92C7C2"/>
<path d="M250.675 308.1L250.6 311.069L251.59 311.094L251.665 308.125L250.675 308.1Z" fill="#92C7C2"/>
<path d="M220.112 170.87L220.104 171.86L223.076 171.883L223.083 170.893L220.112 170.87Z" fill="#92C7C2"/>
<path d="M231.995 170.967L231.987 171.957L233.354 171.967L233.362 170.977L231.995 170.967Z" fill="#92C7C2"/>
<path d="M226.052 170.92L226.044 171.91L229.015 171.933L229.023 170.944L226.052 170.92Z" fill="#92C7C2"/>
<path d="M250.078 331.843L250.003 334.812L250.993 334.837L251.068 331.869L250.078 331.843Z" fill="#92C7C2"/>
<path d="M250.521 314.031L250.446 317L251.436 317.025L251.511 314.056L250.521 314.031Z" fill="#92C7C2"/>
<path d="M250.366 319.972L250.291 322.94L251.281 322.965L251.357 319.997L250.366 319.972Z" fill="#92C7C2"/>
<path d="M343.762 171.911L343.72 172.9L346.688 173.027L346.731 172.038L343.762 171.911Z" fill="#92C7C2"/>
<path d="M355.641 172.419L355.599 173.408L358.567 173.536L358.61 172.547L355.641 172.419Z" fill="#92C7C2"/>
<path d="M331.893 171.403L331.851 172.392L334.819 172.52L334.862 171.531L331.893 171.403Z" fill="#92C7C2"/>
<path d="M337.823 171.667L337.78 172.656L340.749 172.783L340.791 171.794L337.823 171.667Z" fill="#92C7C2"/>
<path d="M252.26 245.9L252.185 248.868L253.175 248.893L253.251 245.925L252.26 245.9Z" fill="#92C7C2"/>
<path d="M349.702 172.175L349.659 173.164L352.628 173.292L352.67 172.303L349.702 172.175Z" fill="#92C7C2"/>
<path d="M262.763 0H261.04L256.514 174.666L258.494 174.716L263.021 0.00989835L262.763 0Z" fill="#92C7C2"/>
<path d="M320.014 170.895L319.972 171.884L322.94 172.012L322.983 171.023L320.014 170.895Z" fill="#92C7C2"/>
<path d="M325.954 171.149L325.911 172.138L328.88 172.266L328.922 171.277L325.954 171.149Z" fill="#92C7C2"/>
<path d="M231.774 156.345L231.17 178.113L303.451 180.119L304.056 158.351L231.774 156.345Z" fill="#92C7C2"/>
<path d="M243.381 164.362V165.352L247.343 165.461L247.184 171.4C247.184 171.944 247.006 172.191 246.6 172.32C245.948 172.452 245.281 172.485 244.619 172.419C244.541 172.111 244.421 171.814 244.263 171.538C244.926 171.588 245.629 171.598 245.808 171.588C245.986 171.578 246.085 171.588 246.095 171.37L246.233 166.371L239.39 166.183L239.221 172.271H238.142L238.34 165.253L242.302 165.352V164.362L237.845 164.243V163.253L242.302 163.382V162.392H243.48V163.382L247.917 163.501V164.491L243.381 164.362ZM243.084 170.41V172.142H242.094V170.41L239.776 170.34V169.519L242.084 169.578V168.648L240.004 168.588V167.797H241.153C241.009 167.351 240.809 166.925 240.558 166.53L241.4 166.312C241.685 166.692 241.912 167.113 242.074 167.559L241.262 167.797H243.124C243.429 167.33 243.697 166.84 243.926 166.332L244.827 166.609C244.59 167.03 244.329 167.436 244.045 167.826H245.273V168.628L243.094 168.569V169.499L245.501 169.568V170.39L243.084 170.41Z" fill="white"/>
<path d="M253.216 169.915C252.538 170.813 251.745 171.619 250.858 172.311C250.631 172.064 250.379 171.842 250.106 171.648C250.907 171.063 251.606 170.351 252.176 169.539L253.216 169.915ZM260.475 164.164V165.154L250.462 164.877V163.887L255.048 164.016C254.876 163.646 254.685 163.286 254.473 162.937L255.513 162.65C255.823 163.093 256.091 163.564 256.316 164.055L260.475 164.164ZM255.949 169.015L255.88 171.638C255.88 172.192 255.731 172.459 255.286 172.627C254.6 172.755 253.9 172.788 253.206 172.726C253.135 172.386 253.028 172.055 252.889 171.737C253.572 171.737 254.285 171.796 254.493 171.786C254.701 171.776 254.741 171.786 254.751 171.608L254.82 169.005L251.71 168.925L251.799 165.679L259.168 165.887L259.069 169.123L255.949 169.015ZM252.79 168.025L257.969 168.163V166.669L252.8 166.53L252.79 168.025ZM258.217 169.648C258.936 170.372 259.598 171.15 260.198 171.974L259.207 172.538C258.62 171.682 257.957 170.88 257.227 170.143L258.217 169.648Z" fill="white"/>
<path d="M272.528 169.786C272.077 170.538 271.443 171.164 270.686 171.608C271.516 171.92 272.376 172.149 273.251 172.291C272.992 172.555 272.765 172.851 272.578 173.172C271.55 172.969 270.551 172.636 269.607 172.182C268.493 172.636 267.324 172.939 266.13 173.082C266.019 172.774 265.862 172.484 265.665 172.221C266.657 172.126 267.636 171.927 268.587 171.627C268.212 171.375 267.854 171.097 267.517 170.796C267.201 171.016 266.87 171.215 266.527 171.39C266.309 171.148 266.074 170.923 265.823 170.717C266.193 170.554 266.55 170.366 266.893 170.153C266.674 169.882 266.472 169.597 266.289 169.301L267.081 169.054C267.225 169.264 267.38 169.466 267.547 169.658C267.853 169.411 268.132 169.132 268.379 168.826H267.269L267.349 165.926C267.18 166.094 267.032 166.243 266.863 166.391C266.667 166.218 266.459 166.059 266.239 165.916C265.971 166.34 265.677 166.746 265.358 167.134L265.19 173.073H264.11L264.239 168.42C263.892 168.771 263.525 169.102 263.139 169.41C262.99 169.067 262.815 168.736 262.615 168.42C263.703 167.667 264.635 166.709 265.358 165.599L266.081 165.906C266.923 165.203 267.576 164.302 267.982 163.283L268.973 163.54C268.864 163.808 268.725 164.075 268.606 164.342L273.281 164.471V165.283L268.131 165.144C267.982 165.342 267.844 165.54 267.685 165.718L272.588 165.857L272.499 169.123L269.528 169.034C269.403 169.227 269.268 169.412 269.121 169.588L271.746 169.668H271.924L272.528 169.786ZM266.21 163.432C265.434 164.456 264.481 165.334 263.397 166.025C263.246 165.724 263.07 165.436 262.872 165.164C263.773 164.608 264.56 163.886 265.19 163.036L266.21 163.432ZM268.19 170.252C268.639 170.606 269.123 170.911 269.636 171.162C270.14 170.909 270.599 170.575 270.993 170.172L268.319 170.093L268.19 170.252ZM268.19 168.104L271.439 168.193V167.589L268.2 167.5L268.19 168.104ZM268.19 166.837L271.429 166.926V166.332L268.299 166.292L268.19 166.837Z" fill="white"/>
<path d="M279.59 171.578C278.468 172.256 277.284 172.826 276.054 173.281C275.88 173.005 275.684 172.744 275.47 172.499C276.616 172.111 277.708 171.579 278.718 170.915L279.59 171.578ZM285.849 170.093V171.024L275.5 170.737V169.747H276.381V164.016C277.056 163.856 277.717 163.647 278.362 163.392L278.817 164.263C278.33 164.413 277.834 164.535 277.332 164.629V165.797H278.501V166.619H277.352V167.787H278.491V168.609H277.372V169.786H278.728L278.897 163.847L282.947 163.956L282.779 169.895H284.146C284.146 169.539 284.215 169.143 284.235 168.737H283.096V167.916H284.285C284.285 167.53 284.284 167.144 284.354 166.748H283.215V165.926H284.384C284.384 165.5 284.384 165.075 284.384 164.669H283.155V163.828L285.334 163.887C285.265 165.797 285.107 168.252 284.958 169.925L285.849 170.093ZM279.422 169.915L281.888 169.974L282.036 164.788L279.57 164.718L279.422 169.915ZM281.709 165.441V166.104L279.848 166.055V165.392L281.709 165.441ZM279.927 166.688H281.61L281.541 169.153H279.857L279.927 166.688ZM280.363 168.549H281.066V167.322H280.372L280.363 168.549ZM282.274 170.935C283.398 171.457 284.486 172.052 285.532 172.716L284.819 173.459C283.811 172.769 282.751 172.157 281.65 171.628L282.274 170.935Z" fill="white"/>
<path d="M292.574 170.786L292.643 171.776L288.335 172.657L288.127 171.667C288.791 171.558 289.652 171.419 290.564 171.231C290.926 169.855 291.2 168.456 291.386 167.044L292.376 167.232C292.118 168.47 291.782 169.994 291.455 171.063L292.574 170.786ZM288.414 165.619L292.891 165.738V166.678L288.405 166.549L288.414 165.619ZM289.633 167.035C289.864 168.274 290.013 169.527 290.078 170.786L289.187 170.925C289.136 169.663 289 168.407 288.781 167.163L289.633 167.035ZM290.455 165.649C290.276 165.077 290.044 164.524 289.761 163.996L290.692 163.768C290.997 164.273 291.243 164.811 291.425 165.372L290.455 165.649ZM295.941 166.945L295.882 168.975L298.229 169.034L298.091 173.845H297.011V173.389L293.891 173.3V173.805H292.901L293.03 168.955L294.842 169.004L294.981 163.877H296.08L296.021 166.005L298.804 166.084V167.074L295.941 166.945ZM297.12 169.915L293.99 169.826L293.921 172.291L297.051 172.37L297.12 169.915Z" fill="white"/>
</g>
<defs>
<clipPath id="clip0_267_9219">
<rect width="521" height="371" fill="white"/>
</clipPath>
</defs>
</svg>
