<svg width="24" height="25" viewBox="0 0 24 25" fill="none" xmlns="http://www.w3.org/2000/svg">
<g clip-path="url(#clip0_84_212)">
<path d="M12 6.1538C13.16 6.1538 14.1 7.1179 14.1 8.30764C14.1 9.49739 13.16 10.4615 12 10.4615C10.84 10.4615 9.9 9.49739 9.9 8.30764C9.9 7.1179 10.84 6.1538 12 6.1538ZM12 15.3846C14.97 15.3846 18.1 16.882 18.1 17.5384V18.6666H5.9V17.5384C5.9 16.882 9.03 15.3846 12 15.3846ZM12 4.20508C9.79 4.20508 8 6.04098 8 8.30764C8 10.5743 9.79 12.4102 12 12.4102C14.21 12.4102 16 10.5743 16 8.30764C16 6.04098 14.21 4.20508 12 4.20508ZM12 13.4358C9.33 13.4358 4 14.8102 4 17.5384V20.6153H20V17.5384C20 14.8102 14.67 13.4358 12 13.4358Z" fill="#23718A"/>
</g>
<defs>
<clipPath id="clip0_84_212">
<rect width="24" height="24.6154" fill="white" transform="translate(0 0.102539)"/>
</clipPath>
</defs>
</svg>
