<svg width="22" height="22" viewBox="0 0 22 22" fill="none" xmlns="http://www.w3.org/2000/svg">
<path d="M8.71098 3.90245L7.7825 4.27384V4.27384L8.71098 3.90245ZM9.67739 6.31847L10.6059 5.94708L9.67739 6.31847ZM9.38359 8.17303L10.1518 8.81321L10.1518 8.81321L9.38359 8.17303ZM8.86348 8.79716L9.6317 9.43734L8.86348 8.79716ZM8.97552 11.2672L8.26842 11.9743L8.97552 11.2672ZM10.7328 13.0245L11.4399 12.3174V12.3174L10.7328 13.0245ZM13.2028 13.1365L12.5627 12.3683L13.2028 13.1365ZM13.827 12.6164L14.4672 13.3846L14.4672 13.3846L13.827 12.6164ZM15.6815 12.3226L15.3101 13.2511L15.6815 12.3226ZM18.0975 13.289L18.4689 12.3605L18.0975 13.289ZM4.48684 3.75H7.00877V1.75H4.48684V3.75ZM7.7825 4.27384L8.74891 6.68986L10.6059 5.94708L9.63946 3.53106L7.7825 4.27384ZM8.61537 7.53284L8.09526 8.15697L9.6317 9.43734L10.1518 8.81321L8.61537 7.53284ZM8.26842 11.9743L10.0257 13.7316L11.4399 12.3174L9.68263 10.5601L8.26842 11.9743ZM13.843 13.9047L14.4672 13.3846L13.1868 11.8482L12.5627 12.3683L13.843 13.9047ZM15.3101 13.2511L17.7262 14.2175L18.4689 12.3605L16.0529 11.3941L15.3101 13.2511ZM18.25 14.9912V17.5132H20.25V14.9912H18.25ZM17.5132 18.25C9.91198 18.25 3.75 12.088 3.75 4.48684H1.75C1.75 13.1926 8.80741 20.25 17.5132 20.25V18.25ZM18.25 17.5132C18.25 17.9201 17.9201 18.25 17.5132 18.25V20.25C19.0247 20.25 20.25 19.0247 20.25 17.5132H18.25ZM17.7262 14.2175C18.0425 14.344 18.25 14.6505 18.25 14.9912H20.25C20.25 13.8327 19.5446 12.7908 18.4689 12.3605L17.7262 14.2175ZM14.4672 13.3846C14.7023 13.1887 15.0259 13.1374 15.3101 13.2511L16.0529 11.3941C15.0867 11.0076 13.9863 11.182 13.1868 11.8482L14.4672 13.3846ZM10.0257 13.7316C11.0619 14.7678 12.7173 14.8429 13.843 13.9047L12.5627 12.3683C12.2316 12.6442 11.7447 12.6221 11.4399 12.3174L10.0257 13.7316ZM8.09526 8.15697C7.15713 9.28273 7.23222 10.9381 8.26842 11.9743L9.68263 10.5601C9.37786 10.2553 9.35578 9.76845 9.6317 9.43734L8.09526 8.15697ZM8.74891 6.68986C8.86259 6.97406 8.81132 7.2977 8.61537 7.53284L10.1518 8.81321C10.818 8.01373 10.9924 6.91335 10.6059 5.94708L8.74891 6.68986ZM7.00877 3.75C7.34953 3.75 7.65595 3.95746 7.7825 4.27384L9.63946 3.53106C9.20918 2.45536 8.16734 1.75 7.00877 1.75V3.75ZM4.48684 1.75C2.97533 1.75 1.75 2.97533 1.75 4.48684H3.75C3.75 4.0799 4.0799 3.75 4.48684 3.75V1.75Z" fill="#31999D"/>
</svg>
