<svg width="24" height="25" viewBox="0 0 24 25" fill="none" xmlns="http://www.w3.org/2000/svg">
<g clip-path="url(#clip0_84_211)">
<path d="M7 18.5641C5.9 18.5641 5.01 19.4871 5.01 20.6154C5.01 21.7436 5.9 22.6666 7 22.6666C8.1 22.6666 9 21.7436 9 20.6154C9 19.4871 8.1 18.5641 7 18.5641ZM1 2.15381V4.20509H3L6.6 11.9897L5.25 14.5025C5.09 14.7897 5 15.1282 5 15.4871C5 16.6153 5.9 17.5384 7 17.5384H19V15.4871H7.42C7.28 15.4871 7.17 15.3743 7.17 15.2307L7.2 15.1077L8.1 13.4359H15.55C16.3 13.4359 16.96 13.0153 17.3 12.3795L20.88 5.72304C20.96 5.57945 21 5.40509 21 5.23073C21 4.66663 20.55 4.20509 20 4.20509H5.21L4.27 2.15381H1ZM17 18.5641C15.9 18.5641 15.01 19.4871 15.01 20.6154C15.01 21.7436 15.9 22.6666 17 22.6666C18.1 22.6666 19 21.7436 19 20.6154C19 19.4871 18.1 18.5641 17 18.5641Z" fill="#23718A"/>
</g>
<defs>
<clipPath id="clip0_84_211">
<rect width="24" height="24.6154" fill="white" transform="translate(0 0.102539)"/>
</clipPath>
</defs>
</svg>
